<?xml version="1.0" encoding="UTF-8"?>
<!DOCTYPE svg PUBLIC "-//W3C//DTD SVG 1.1//EN" "http://www.w3.org/Graphics/SVG/1.1/DTD/svg11.dtd">
<svg width="336mm" height="137mm" viewBox="0 0 33600 13700" version="1.1" xmlns="http://www.w3.org/2000/svg" xmlns:xlink="http://www.w3.org/1999/xlink" stroke-width="28.222" stroke-linejoin="round" xml:space="preserve">
 <path fill="rgb(255,255,255)" stroke="none" d="M 16782,13733 L 0,13733 0,0 33563,0 33563,13733 16782,13733 Z"/>
 <path fill="none" stroke="rgb(179,179,179)" stroke-linejoin="round" d="M 17110,11831 L 3415,11831 3415,1662 30805,1662 30805,11831 17110,11831 Z"/>
 <path fill="none" stroke="rgb(179,179,179)" stroke-linejoin="round" d="M 30805,11830 L 3415,11830"/>
 <path fill="none" stroke="rgb(179,179,179)" stroke-linejoin="round" d="M 30805,10135 L 3415,10135"/>
 <path fill="none" stroke="rgb(179,179,179)" stroke-linejoin="round" d="M 30805,8440 L 3415,8440"/>
 <path fill="none" stroke="rgb(179,179,179)" stroke-linejoin="round" d="M 30805,6746 L 3415,6746"/>
 <path fill="none" stroke="rgb(179,179,179)" stroke-linejoin="round" d="M 30805,5051 L 3415,5051"/>
 <path fill="none" stroke="rgb(179,179,179)" stroke-linejoin="round" d="M 30805,3356 L 3415,3356"/>
 <path fill="none" stroke="rgb(179,179,179)" stroke-linejoin="round" d="M 30805,1661 L 3415,1661"/>
 <path fill="none" stroke="rgb(179,179,179)" stroke-linejoin="round" d="M 3415,11980 L 3415,11830"/>
 <path fill="none" stroke="rgb(179,179,179)" stroke-linejoin="round" d="M 3415,11980 L 3415,11830"/>
 <path fill="none" stroke="rgb(179,179,179)" stroke-linejoin="round" d="M 6154,11980 L 6154,11830"/>
 <path fill="none" stroke="rgb(179,179,179)" stroke-linejoin="round" d="M 6154,11980 L 6154,11830"/>
 <path fill="none" stroke="rgb(179,179,179)" stroke-linejoin="round" d="M 8893,11980 L 8893,11830"/>
 <path fill="none" stroke="rgb(179,179,179)" stroke-linejoin="round" d="M 8893,11980 L 8893,11830"/>
 <path fill="none" stroke="rgb(179,179,179)" stroke-linejoin="round" d="M 11632,11980 L 11632,11830"/>
 <path fill="none" stroke="rgb(179,179,179)" stroke-linejoin="round" d="M 11632,11980 L 11632,11830"/>
 <path fill="none" stroke="rgb(179,179,179)" stroke-linejoin="round" d="M 14371,11980 L 14371,11830"/>
 <path fill="none" stroke="rgb(179,179,179)" stroke-linejoin="round" d="M 14371,11980 L 14371,11830"/>
 <path fill="none" stroke="rgb(179,179,179)" stroke-linejoin="round" d="M 17109,11980 L 17109,11830"/>
 <path fill="none" stroke="rgb(179,179,179)" stroke-linejoin="round" d="M 17109,11980 L 17109,11830"/>
 <path fill="none" stroke="rgb(179,179,179)" stroke-linejoin="round" d="M 19848,11980 L 19848,11830"/>
 <path fill="none" stroke="rgb(179,179,179)" stroke-linejoin="round" d="M 19848,11980 L 19848,11830"/>
 <path fill="none" stroke="rgb(179,179,179)" stroke-linejoin="round" d="M 22587,11980 L 22587,11830"/>
 <path fill="none" stroke="rgb(179,179,179)" stroke-linejoin="round" d="M 22587,11980 L 22587,11830"/>
 <path fill="none" stroke="rgb(179,179,179)" stroke-linejoin="round" d="M 25326,11980 L 25326,11830"/>
 <path fill="none" stroke="rgb(179,179,179)" stroke-linejoin="round" d="M 25326,11980 L 25326,11830"/>
 <path fill="none" stroke="rgb(179,179,179)" stroke-linejoin="round" d="M 28065,11980 L 28065,11830"/>
 <path fill="none" stroke="rgb(179,179,179)" stroke-linejoin="round" d="M 28065,11980 L 28065,11830"/>
 <path fill="none" stroke="rgb(179,179,179)" stroke-linejoin="round" d="M 30805,11980 L 30805,11830"/>
 <path fill="none" stroke="rgb(179,179,179)" stroke-linejoin="round" d="M 30805,11980 L 30805,11830"/>
 <path fill="none" stroke="rgb(179,179,179)" stroke-linejoin="round" d="M 3415,11830 L 30805,11830"/>
 <path fill="none" stroke="rgb(179,179,179)" stroke-linejoin="round" d="M 3265,11830 L 3415,11830"/>
 <path fill="none" stroke="rgb(179,179,179)" stroke-linejoin="round" d="M 3265,11830 L 3415,11830"/>
 <path fill="none" stroke="rgb(179,179,179)" stroke-linejoin="round" d="M 3265,10135 L 3415,10135"/>
 <path fill="none" stroke="rgb(179,179,179)" stroke-linejoin="round" d="M 3265,10135 L 3415,10135"/>
 <path fill="none" stroke="rgb(179,179,179)" stroke-linejoin="round" d="M 3265,8440 L 3415,8440"/>
 <path fill="none" stroke="rgb(179,179,179)" stroke-linejoin="round" d="M 3265,8440 L 3415,8440"/>
 <path fill="none" stroke="rgb(179,179,179)" stroke-linejoin="round" d="M 3265,6746 L 3415,6746"/>
 <path fill="none" stroke="rgb(179,179,179)" stroke-linejoin="round" d="M 3265,6746 L 3415,6746"/>
 <path fill="none" stroke="rgb(179,179,179)" stroke-linejoin="round" d="M 3265,5051 L 3415,5051"/>
 <path fill="none" stroke="rgb(179,179,179)" stroke-linejoin="round" d="M 3265,5051 L 3415,5051"/>
 <path fill="none" stroke="rgb(179,179,179)" stroke-linejoin="round" d="M 3265,3356 L 3415,3356"/>
 <path fill="none" stroke="rgb(179,179,179)" stroke-linejoin="round" d="M 3265,3356 L 3415,3356"/>
 <path fill="none" stroke="rgb(179,179,179)" stroke-linejoin="round" d="M 3265,1661 L 3415,1661"/>
 <path fill="none" stroke="rgb(179,179,179)" stroke-linejoin="round" d="M 3265,1661 L 3415,1661"/>
 <path fill="none" stroke="rgb(179,179,179)" stroke-linejoin="round" d="M 3415,11830 L 3415,1661"/>
 <path fill="none" stroke="rgb(0,69,134)" stroke-width="80" stroke-linejoin="round" d="M 3962,3234 L 4510,8082 5058,8425 5606,8494 6154,8503 6701,8505 7249,8506 7797,8506 8345,8506 8893,8506 9441,8506 9988,8506 10536,8506 11084,8506 11632,8506 12180,8506 12727,8506 13275,8506 13823,8506 14371,8506 14919,8506 15467,8506 16014,8506 16562,8506 17109,8506 17657,8506 18205,8506 18752,8506 19300,8506 19848,8506 20396,8506 20944,8506 21492,8506 22039,8506 22587,8506 23135,8506 23683,8506 24231,8506 24778,8506 25326,8506 25874,8506 26422,8506 26970,8506 27518,8506 28065,8506 28613,8506 29161,8506 29709,8506 30257,8506 30805,8506"/>
 <path fill="rgb(0,69,134)" stroke="none" d="M 3837,3109 L 3837,3359 4087,3359 4087,3109 3837,3109 Z"/>
 <path fill="none" stroke="rgb(0,69,134)" stroke-linejoin="round" d="M 3837,3109 L 3837,3359 4087,3359 4087,3109 3837,3109 Z"/>
 <path fill="rgb(0,69,134)" stroke="none" d="M 4385,7957 L 4385,8207 4635,8207 4635,7957 4385,7957 Z"/>
 <path fill="none" stroke="rgb(0,69,134)" stroke-linejoin="round" d="M 4385,7957 L 4385,8207 4635,8207 4635,7957 4385,7957 Z"/>
 <path fill="rgb(0,69,134)" stroke="none" d="M 4933,8300 L 4933,8550 5183,8550 5183,8300 4933,8300 Z"/>
 <path fill="none" stroke="rgb(0,69,134)" stroke-linejoin="round" d="M 4933,8300 L 4933,8550 5183,8550 5183,8300 4933,8300 Z"/>
 <path fill="rgb(0,69,134)" stroke="none" d="M 5481,8369 L 5481,8619 5731,8619 5731,8369 5481,8369 Z"/>
 <path fill="none" stroke="rgb(0,69,134)" stroke-linejoin="round" d="M 5481,8369 L 5481,8619 5731,8619 5731,8369 5481,8369 Z"/>
 <path fill="rgb(0,69,134)" stroke="none" d="M 6029,8378 L 6029,8628 6279,8628 6279,8378 6029,8378 Z"/>
 <path fill="none" stroke="rgb(0,69,134)" stroke-linejoin="round" d="M 6029,8378 L 6029,8628 6279,8628 6279,8378 6029,8378 Z"/>
 <path fill="rgb(0,69,134)" stroke="none" d="M 6576,8380 L 6576,8630 6826,8630 6826,8380 6576,8380 Z"/>
 <path fill="none" stroke="rgb(0,69,134)" stroke-linejoin="round" d="M 6576,8380 L 6576,8630 6826,8630 6826,8380 6576,8380 Z"/>
 <path fill="rgb(0,69,134)" stroke="none" d="M 7124,8381 L 7124,8631 7374,8631 7374,8381 7124,8381 Z"/>
 <path fill="none" stroke="rgb(0,69,134)" stroke-linejoin="round" d="M 7124,8381 L 7124,8631 7374,8631 7374,8381 7124,8381 Z"/>
 <path fill="rgb(0,69,134)" stroke="none" d="M 7672,8381 L 7672,8631 7922,8631 7922,8381 7672,8381 Z"/>
 <path fill="none" stroke="rgb(0,69,134)" stroke-linejoin="round" d="M 7672,8381 L 7672,8631 7922,8631 7922,8381 7672,8381 Z"/>
 <path fill="rgb(0,69,134)" stroke="none" d="M 8220,8381 L 8220,8631 8470,8631 8470,8381 8220,8381 Z"/>
 <path fill="none" stroke="rgb(0,69,134)" stroke-linejoin="round" d="M 8220,8381 L 8220,8631 8470,8631 8470,8381 8220,8381 Z"/>
 <path fill="rgb(0,69,134)" stroke="none" d="M 8768,8381 L 8768,8631 9018,8631 9018,8381 8768,8381 Z"/>
 <path fill="none" stroke="rgb(0,69,134)" stroke-linejoin="round" d="M 8768,8381 L 8768,8631 9018,8631 9018,8381 8768,8381 Z"/>
 <path fill="rgb(0,69,134)" stroke="none" d="M 9316,8381 L 9316,8631 9566,8631 9566,8381 9316,8381 Z"/>
 <path fill="none" stroke="rgb(0,69,134)" stroke-linejoin="round" d="M 9316,8381 L 9316,8631 9566,8631 9566,8381 9316,8381 Z"/>
 <path fill="rgb(0,69,134)" stroke="none" d="M 9863,8381 L 9863,8631 10113,8631 10113,8381 9863,8381 Z"/>
 <path fill="none" stroke="rgb(0,69,134)" stroke-linejoin="round" d="M 9863,8381 L 9863,8631 10113,8631 10113,8381 9863,8381 Z"/>
 <path fill="rgb(0,69,134)" stroke="none" d="M 10411,8381 L 10411,8631 10661,8631 10661,8381 10411,8381 Z"/>
 <path fill="none" stroke="rgb(0,69,134)" stroke-linejoin="round" d="M 10411,8381 L 10411,8631 10661,8631 10661,8381 10411,8381 Z"/>
 <path fill="rgb(0,69,134)" stroke="none" d="M 10959,8381 L 10959,8631 11209,8631 11209,8381 10959,8381 Z"/>
 <path fill="none" stroke="rgb(0,69,134)" stroke-linejoin="round" d="M 10959,8381 L 10959,8631 11209,8631 11209,8381 10959,8381 Z"/>
 <path fill="rgb(0,69,134)" stroke="none" d="M 11507,8381 L 11507,8631 11757,8631 11757,8381 11507,8381 Z"/>
 <path fill="none" stroke="rgb(0,69,134)" stroke-linejoin="round" d="M 11507,8381 L 11507,8631 11757,8631 11757,8381 11507,8381 Z"/>
 <path fill="rgb(0,69,134)" stroke="none" d="M 12055,8381 L 12055,8631 12305,8631 12305,8381 12055,8381 Z"/>
 <path fill="none" stroke="rgb(0,69,134)" stroke-linejoin="round" d="M 12055,8381 L 12055,8631 12305,8631 12305,8381 12055,8381 Z"/>
 <path fill="rgb(0,69,134)" stroke="none" d="M 12602,8381 L 12602,8631 12852,8631 12852,8381 12602,8381 Z"/>
 <path fill="none" stroke="rgb(0,69,134)" stroke-linejoin="round" d="M 12602,8381 L 12602,8631 12852,8631 12852,8381 12602,8381 Z"/>
 <path fill="rgb(0,69,134)" stroke="none" d="M 13150,8381 L 13150,8631 13400,8631 13400,8381 13150,8381 Z"/>
 <path fill="none" stroke="rgb(0,69,134)" stroke-linejoin="round" d="M 13150,8381 L 13150,8631 13400,8631 13400,8381 13150,8381 Z"/>
 <path fill="rgb(0,69,134)" stroke="none" d="M 13698,8381 L 13698,8631 13948,8631 13948,8381 13698,8381 Z"/>
 <path fill="none" stroke="rgb(0,69,134)" stroke-linejoin="round" d="M 13698,8381 L 13698,8631 13948,8631 13948,8381 13698,8381 Z"/>
 <path fill="rgb(0,69,134)" stroke="none" d="M 14246,8381 L 14246,8631 14496,8631 14496,8381 14246,8381 Z"/>
 <path fill="none" stroke="rgb(0,69,134)" stroke-linejoin="round" d="M 14246,8381 L 14246,8631 14496,8631 14496,8381 14246,8381 Z"/>
 <path fill="rgb(0,69,134)" stroke="none" d="M 14794,8381 L 14794,8631 15044,8631 15044,8381 14794,8381 Z"/>
 <path fill="none" stroke="rgb(0,69,134)" stroke-linejoin="round" d="M 14794,8381 L 14794,8631 15044,8631 15044,8381 14794,8381 Z"/>
 <path fill="rgb(0,69,134)" stroke="none" d="M 15342,8381 L 15342,8631 15592,8631 15592,8381 15342,8381 Z"/>
 <path fill="none" stroke="rgb(0,69,134)" stroke-linejoin="round" d="M 15342,8381 L 15342,8631 15592,8631 15592,8381 15342,8381 Z"/>
 <path fill="rgb(0,69,134)" stroke="none" d="M 15889,8381 L 15889,8631 16139,8631 16139,8381 15889,8381 Z"/>
 <path fill="none" stroke="rgb(0,69,134)" stroke-linejoin="round" d="M 15889,8381 L 15889,8631 16139,8631 16139,8381 15889,8381 Z"/>
 <path fill="rgb(0,69,134)" stroke="none" d="M 16437,8381 L 16437,8631 16687,8631 16687,8381 16437,8381 Z"/>
 <path fill="none" stroke="rgb(0,69,134)" stroke-linejoin="round" d="M 16437,8381 L 16437,8631 16687,8631 16687,8381 16437,8381 Z"/>
 <path fill="rgb(0,69,134)" stroke="none" d="M 16984,8381 L 16984,8631 17234,8631 17234,8381 16984,8381 Z"/>
 <path fill="none" stroke="rgb(0,69,134)" stroke-linejoin="round" d="M 16984,8381 L 16984,8631 17234,8631 17234,8381 16984,8381 Z"/>
 <path fill="rgb(0,69,134)" stroke="none" d="M 17532,8381 L 17532,8631 17782,8631 17782,8381 17532,8381 Z"/>
 <path fill="none" stroke="rgb(0,69,134)" stroke-linejoin="round" d="M 17532,8381 L 17532,8631 17782,8631 17782,8381 17532,8381 Z"/>
 <path fill="rgb(0,69,134)" stroke="none" d="M 18080,8381 L 18080,8631 18330,8631 18330,8381 18080,8381 Z"/>
 <path fill="none" stroke="rgb(0,69,134)" stroke-linejoin="round" d="M 18080,8381 L 18080,8631 18330,8631 18330,8381 18080,8381 Z"/>
 <path fill="rgb(0,69,134)" stroke="none" d="M 18627,8381 L 18627,8631 18877,8631 18877,8381 18627,8381 Z"/>
 <path fill="none" stroke="rgb(0,69,134)" stroke-linejoin="round" d="M 18627,8381 L 18627,8631 18877,8631 18877,8381 18627,8381 Z"/>
 <path fill="rgb(0,69,134)" stroke="none" d="M 19175,8381 L 19175,8631 19425,8631 19425,8381 19175,8381 Z"/>
 <path fill="none" stroke="rgb(0,69,134)" stroke-linejoin="round" d="M 19175,8381 L 19175,8631 19425,8631 19425,8381 19175,8381 Z"/>
 <path fill="rgb(0,69,134)" stroke="none" d="M 19723,8381 L 19723,8631 19973,8631 19973,8381 19723,8381 Z"/>
 <path fill="none" stroke="rgb(0,69,134)" stroke-linejoin="round" d="M 19723,8381 L 19723,8631 19973,8631 19973,8381 19723,8381 Z"/>
 <path fill="rgb(0,69,134)" stroke="none" d="M 20271,8381 L 20271,8631 20521,8631 20521,8381 20271,8381 Z"/>
 <path fill="none" stroke="rgb(0,69,134)" stroke-linejoin="round" d="M 20271,8381 L 20271,8631 20521,8631 20521,8381 20271,8381 Z"/>
 <path fill="rgb(0,69,134)" stroke="none" d="M 20819,8381 L 20819,8631 21069,8631 21069,8381 20819,8381 Z"/>
 <path fill="none" stroke="rgb(0,69,134)" stroke-linejoin="round" d="M 20819,8381 L 20819,8631 21069,8631 21069,8381 20819,8381 Z"/>
 <path fill="rgb(0,69,134)" stroke="none" d="M 21367,8381 L 21367,8631 21617,8631 21617,8381 21367,8381 Z"/>
 <path fill="none" stroke="rgb(0,69,134)" stroke-linejoin="round" d="M 21367,8381 L 21367,8631 21617,8631 21617,8381 21367,8381 Z"/>
 <path fill="rgb(0,69,134)" stroke="none" d="M 21914,8381 L 21914,8631 22164,8631 22164,8381 21914,8381 Z"/>
 <path fill="none" stroke="rgb(0,69,134)" stroke-linejoin="round" d="M 21914,8381 L 21914,8631 22164,8631 22164,8381 21914,8381 Z"/>
 <path fill="rgb(0,69,134)" stroke="none" d="M 22462,8381 L 22462,8631 22712,8631 22712,8381 22462,8381 Z"/>
 <path fill="none" stroke="rgb(0,69,134)" stroke-linejoin="round" d="M 22462,8381 L 22462,8631 22712,8631 22712,8381 22462,8381 Z"/>
 <path fill="rgb(0,69,134)" stroke="none" d="M 23010,8381 L 23010,8631 23260,8631 23260,8381 23010,8381 Z"/>
 <path fill="none" stroke="rgb(0,69,134)" stroke-linejoin="round" d="M 23010,8381 L 23010,8631 23260,8631 23260,8381 23010,8381 Z"/>
 <path fill="rgb(0,69,134)" stroke="none" d="M 23558,8381 L 23558,8631 23808,8631 23808,8381 23558,8381 Z"/>
 <path fill="none" stroke="rgb(0,69,134)" stroke-linejoin="round" d="M 23558,8381 L 23558,8631 23808,8631 23808,8381 23558,8381 Z"/>
 <path fill="rgb(0,69,134)" stroke="none" d="M 24106,8381 L 24106,8631 24356,8631 24356,8381 24106,8381 Z"/>
 <path fill="none" stroke="rgb(0,69,134)" stroke-linejoin="round" d="M 24106,8381 L 24106,8631 24356,8631 24356,8381 24106,8381 Z"/>
 <path fill="rgb(0,69,134)" stroke="none" d="M 24653,8381 L 24653,8631 24903,8631 24903,8381 24653,8381 Z"/>
 <path fill="none" stroke="rgb(0,69,134)" stroke-linejoin="round" d="M 24653,8381 L 24653,8631 24903,8631 24903,8381 24653,8381 Z"/>
 <path fill="rgb(0,69,134)" stroke="none" d="M 25201,8381 L 25201,8631 25451,8631 25451,8381 25201,8381 Z"/>
 <path fill="none" stroke="rgb(0,69,134)" stroke-linejoin="round" d="M 25201,8381 L 25201,8631 25451,8631 25451,8381 25201,8381 Z"/>
 <path fill="rgb(0,69,134)" stroke="none" d="M 25749,8381 L 25749,8631 25999,8631 25999,8381 25749,8381 Z"/>
 <path fill="none" stroke="rgb(0,69,134)" stroke-linejoin="round" d="M 25749,8381 L 25749,8631 25999,8631 25999,8381 25749,8381 Z"/>
 <path fill="rgb(0,69,134)" stroke="none" d="M 26297,8381 L 26297,8631 26547,8631 26547,8381 26297,8381 Z"/>
 <path fill="none" stroke="rgb(0,69,134)" stroke-linejoin="round" d="M 26297,8381 L 26297,8631 26547,8631 26547,8381 26297,8381 Z"/>
 <path fill="rgb(0,69,134)" stroke="none" d="M 26845,8381 L 26845,8631 27095,8631 27095,8381 26845,8381 Z"/>
 <path fill="none" stroke="rgb(0,69,134)" stroke-linejoin="round" d="M 26845,8381 L 26845,8631 27095,8631 27095,8381 26845,8381 Z"/>
 <path fill="rgb(0,69,134)" stroke="none" d="M 27393,8381 L 27393,8631 27643,8631 27643,8381 27393,8381 Z"/>
 <path fill="none" stroke="rgb(0,69,134)" stroke-linejoin="round" d="M 27393,8381 L 27393,8631 27643,8631 27643,8381 27393,8381 Z"/>
 <path fill="rgb(0,69,134)" stroke="none" d="M 27940,8381 L 27940,8631 28190,8631 28190,8381 27940,8381 Z"/>
 <path fill="none" stroke="rgb(0,69,134)" stroke-linejoin="round" d="M 27940,8381 L 27940,8631 28190,8631 28190,8381 27940,8381 Z"/>
 <path fill="rgb(0,69,134)" stroke="none" d="M 28488,8381 L 28488,8631 28738,8631 28738,8381 28488,8381 Z"/>
 <path fill="none" stroke="rgb(0,69,134)" stroke-linejoin="round" d="M 28488,8381 L 28488,8631 28738,8631 28738,8381 28488,8381 Z"/>
 <path fill="rgb(0,69,134)" stroke="none" d="M 29036,8381 L 29036,8631 29286,8631 29286,8381 29036,8381 Z"/>
 <path fill="none" stroke="rgb(0,69,134)" stroke-linejoin="round" d="M 29036,8381 L 29036,8631 29286,8631 29286,8381 29036,8381 Z"/>
 <path fill="rgb(0,69,134)" stroke="none" d="M 29584,8381 L 29584,8631 29834,8631 29834,8381 29584,8381 Z"/>
 <path fill="none" stroke="rgb(0,69,134)" stroke-linejoin="round" d="M 29584,8381 L 29584,8631 29834,8631 29834,8381 29584,8381 Z"/>
 <path fill="rgb(0,69,134)" stroke="none" d="M 30132,8381 L 30132,8631 30382,8631 30382,8381 30132,8381 Z"/>
 <path fill="none" stroke="rgb(0,69,134)" stroke-linejoin="round" d="M 30132,8381 L 30132,8631 30382,8631 30382,8381 30132,8381 Z"/>
 <path fill="rgb(0,69,134)" stroke="none" d="M 30680,8381 L 30680,8631 30930,8631 30930,8381 30680,8381 Z"/>
 <path fill="none" stroke="rgb(0,69,134)" stroke-linejoin="round" d="M 30680,8381 L 30680,8631 30930,8631 30930,8381 30680,8381 Z"/>
 <text class="TextShape"><tspan class="TextParagraph" font-family="Liberation Sans, sans-serif" font-size="353px" font-weight="400"><tspan class="TextPosition" x="3322" y="12398"><tspan fill="rgb(0,0,0)" stroke="none">0</tspan></tspan></tspan></text>
 <text class="TextShape"><tspan class="TextParagraph" font-family="Liberation Sans, sans-serif" font-size="353px" font-weight="400"><tspan class="TextPosition" x="6061" y="12398"><tspan fill="rgb(0,0,0)" stroke="none">5</tspan></tspan></tspan></text>
 <text class="TextShape"><tspan class="TextParagraph" font-family="Liberation Sans, sans-serif" font-size="353px" font-weight="400"><tspan class="TextPosition" x="8708" y="12398"><tspan fill="rgb(0,0,0)" stroke="none">10</tspan></tspan></tspan></text>
 <text class="TextShape"><tspan class="TextParagraph" font-family="Liberation Sans, sans-serif" font-size="353px" font-weight="400"><tspan class="TextPosition" x="11447" y="12398"><tspan fill="rgb(0,0,0)" stroke="none">15</tspan></tspan></tspan></text>
 <text class="TextShape"><tspan class="TextParagraph" font-family="Liberation Sans, sans-serif" font-size="353px" font-weight="400"><tspan class="TextPosition" x="14186" y="12398"><tspan fill="rgb(0,0,0)" stroke="none">20</tspan></tspan></tspan></text>
 <text class="TextShape"><tspan class="TextParagraph" font-family="Liberation Sans, sans-serif" font-size="353px" font-weight="400"><tspan class="TextPosition" x="16925" y="12398"><tspan fill="rgb(0,0,0)" stroke="none">25</tspan></tspan></tspan></text>
 <text class="TextShape"><tspan class="TextParagraph" font-family="Liberation Sans, sans-serif" font-size="353px" font-weight="400"><tspan class="TextPosition" x="19664" y="12398"><tspan fill="rgb(0,0,0)" stroke="none">30</tspan></tspan></tspan></text>
 <text class="TextShape"><tspan class="TextParagraph" font-family="Liberation Sans, sans-serif" font-size="353px" font-weight="400"><tspan class="TextPosition" x="22403" y="12398"><tspan fill="rgb(0,0,0)" stroke="none">35</tspan></tspan></tspan></text>
 <text class="TextShape"><tspan class="TextParagraph" font-family="Liberation Sans, sans-serif" font-size="353px" font-weight="400"><tspan class="TextPosition" x="25142" y="12398"><tspan fill="rgb(0,0,0)" stroke="none">40</tspan></tspan></tspan></text>
 <text class="TextShape"><tspan class="TextParagraph" font-family="Liberation Sans, sans-serif" font-size="353px" font-weight="400"><tspan class="TextPosition" x="27881" y="12398"><tspan fill="rgb(0,0,0)" stroke="none">45</tspan></tspan></tspan></text>
 <text class="TextShape"><tspan class="TextParagraph" font-family="Liberation Sans, sans-serif" font-size="353px" font-weight="400"><tspan class="TextPosition" x="30621" y="12398"><tspan fill="rgb(0,0,0)" stroke="none">50</tspan></tspan></tspan></text>
 <text class="TextShape"><tspan class="TextParagraph" font-family="Liberation Sans, sans-serif" font-size="353px" font-weight="400"><tspan class="TextPosition" x="1683" y="11951"><tspan fill="rgb(0,0,0)" stroke="none">1.67E+10</tspan></tspan></tspan></text>
 <text class="TextShape"><tspan class="TextParagraph" font-family="Liberation Sans, sans-serif" font-size="353px" font-weight="400"><tspan class="TextPosition" x="1683" y="10256"><tspan fill="rgb(0,0,0)" stroke="none">1.68E+10</tspan></tspan></tspan></text>
 <text class="TextShape"><tspan class="TextParagraph" font-family="Liberation Sans, sans-serif" font-size="353px" font-weight="400"><tspan class="TextPosition" x="1683" y="8561"><tspan fill="rgb(0,0,0)" stroke="none">1.69E+10</tspan></tspan></tspan></text>
 <text class="TextShape"><tspan class="TextParagraph" font-family="Liberation Sans, sans-serif" font-size="353px" font-weight="400"><tspan class="TextPosition" x="1683" y="6866"><tspan fill="rgb(0,0,0)" stroke="none">1.70E+10</tspan></tspan></tspan></text>
 <text class="TextShape"><tspan class="TextParagraph" font-family="Liberation Sans, sans-serif" font-size="353px" font-weight="400"><tspan class="TextPosition" x="1683" y="5171"><tspan fill="rgb(0,0,0)" stroke="none">1.71E+10</tspan></tspan></tspan></text>
 <text class="TextShape"><tspan class="TextParagraph" font-family="Liberation Sans, sans-serif" font-size="353px" font-weight="400"><tspan class="TextPosition" x="1683" y="3476"><tspan fill="rgb(0,0,0)" stroke="none">1.72E+10</tspan></tspan></tspan></text>
 <text class="TextShape"><tspan class="TextParagraph" font-family="Liberation Sans, sans-serif" font-size="353px" font-weight="400"><tspan class="TextPosition" x="1683" y="1781"><tspan fill="rgb(0,0,0)" stroke="none">1.73E+10</tspan></tspan></tspan></text>
 <text class="TextShape"><tspan class="TextParagraph" font-family="Liberation Sans, sans-serif" font-size="459px" font-weight="400"><tspan class="TextPosition" x="12720" y="945"><tspan fill="rgb(0,0,0)" stroke="none">Convergence of K-Means with 2 Clusters</tspan></tspan></tspan></text>
 <path fill="none" stroke="rgb(0,69,134)" stroke-width="80" stroke-linejoin="round" d="M 31779,6866 L 32579,6866"/>
 <path fill="rgb(0,69,134)" stroke="none" d="M 32073,6761 L 32073,6971 32284,6971 32284,6761 32073,6761 Z"/>
 <path fill="none" stroke="rgb(0,69,134)" stroke-linejoin="round" d="M 32073,6761 L 32073,6971 32284,6971 32284,6761 32073,6761 Z"/>
 <text class="TextShape"><tspan class="TextParagraph" font-family="Liberation Sans, sans-serif" font-size="353px" font-weight="400"><tspan class="TextPosition" x="32679" y="6985"><tspan fill="rgb(0,0,0)" stroke="none">sse</tspan></tspan></tspan></text>
 <text class="TextShape"><tspan class="TextParagraph" font-family="Liberation Sans, sans-serif" font-size="318px" font-weight="400"><tspan class="TextPosition" x="15675" y="13139"><tspan fill="rgb(0,0,0)" stroke="none">Iterations</tspan></tspan></tspan></text>
 <text class="TextShape" transform="rotate(-90 837 7288)"><tspan class="TextParagraph" font-family="Liberation Sans, sans-serif" font-size="318px" font-weight="400"><tspan class="TextPosition" x="837" y="7288"><tspan fill="rgb(0,0,0)" stroke="none">SSE</tspan></tspan></tspan></text>
</svg>