<?xml version="1.0" encoding="UTF-8"?>
<!DOCTYPE svg PUBLIC "-//W3C//DTD SVG 1.1//EN" "http://www.w3.org/Graphics/SVG/1.1/DTD/svg11.dtd">
<svg width="301mm" height="138mm" viewBox="0 0 30100 13800" version="1.1" xmlns="http://www.w3.org/2000/svg" xmlns:xlink="http://www.w3.org/1999/xlink" stroke-width="28.222" stroke-linejoin="round" xml:space="preserve">
 <path fill="rgb(255,255,255)" stroke="none" d="M 15042,13786 L 0,13786 0,0 30083,0 30083,13786 15042,13786 Z"/>
 <path fill="none" stroke="rgb(179,179,179)" stroke-linejoin="round" d="M 15065,11883 L 3900,11883 3900,1664 26231,1664 26231,11883 15065,11883 Z"/>
 <path fill="none" stroke="rgb(179,179,179)" stroke-linejoin="round" d="M 26231,11881 L 3900,11881"/>
 <path fill="none" stroke="rgb(179,179,179)" stroke-linejoin="round" d="M 26231,10746 L 3900,10746"/>
 <path fill="none" stroke="rgb(179,179,179)" stroke-linejoin="round" d="M 26231,9610 L 3900,9610"/>
 <path fill="none" stroke="rgb(179,179,179)" stroke-linejoin="round" d="M 26231,8475 L 3900,8475"/>
 <path fill="none" stroke="rgb(179,179,179)" stroke-linejoin="round" d="M 26231,7339 L 3900,7339"/>
 <path fill="none" stroke="rgb(179,179,179)" stroke-linejoin="round" d="M 26231,6205 L 3900,6205"/>
 <path fill="none" stroke="rgb(179,179,179)" stroke-linejoin="round" d="M 26231,5069 L 3900,5069"/>
 <path fill="none" stroke="rgb(179,179,179)" stroke-linejoin="round" d="M 26231,3934 L 3900,3934"/>
 <path fill="none" stroke="rgb(179,179,179)" stroke-linejoin="round" d="M 26231,2798 L 3900,2798"/>
 <path fill="none" stroke="rgb(179,179,179)" stroke-linejoin="round" d="M 26231,1662 L 3900,1662"/>
 <path fill="none" stroke="rgb(179,179,179)" stroke-linejoin="round" d="M 3900,12031 L 3900,11881"/>
 <path fill="none" stroke="rgb(179,179,179)" stroke-linejoin="round" d="M 3900,12031 L 3900,11881"/>
 <path fill="none" stroke="rgb(179,179,179)" stroke-linejoin="round" d="M 6691,12031 L 6691,11881"/>
 <path fill="none" stroke="rgb(179,179,179)" stroke-linejoin="round" d="M 6691,12031 L 6691,11881"/>
 <path fill="none" stroke="rgb(179,179,179)" stroke-linejoin="round" d="M 9483,12031 L 9483,11881"/>
 <path fill="none" stroke="rgb(179,179,179)" stroke-linejoin="round" d="M 9483,12031 L 9483,11881"/>
 <path fill="none" stroke="rgb(179,179,179)" stroke-linejoin="round" d="M 12274,12031 L 12274,11881"/>
 <path fill="none" stroke="rgb(179,179,179)" stroke-linejoin="round" d="M 12274,12031 L 12274,11881"/>
 <path fill="none" stroke="rgb(179,179,179)" stroke-linejoin="round" d="M 15065,12031 L 15065,11881"/>
 <path fill="none" stroke="rgb(179,179,179)" stroke-linejoin="round" d="M 15065,12031 L 15065,11881"/>
 <path fill="none" stroke="rgb(179,179,179)" stroke-linejoin="round" d="M 17856,12031 L 17856,11881"/>
 <path fill="none" stroke="rgb(179,179,179)" stroke-linejoin="round" d="M 17856,12031 L 17856,11881"/>
 <path fill="none" stroke="rgb(179,179,179)" stroke-linejoin="round" d="M 20648,12031 L 20648,11881"/>
 <path fill="none" stroke="rgb(179,179,179)" stroke-linejoin="round" d="M 20648,12031 L 20648,11881"/>
 <path fill="none" stroke="rgb(179,179,179)" stroke-linejoin="round" d="M 23439,12031 L 23439,11881"/>
 <path fill="none" stroke="rgb(179,179,179)" stroke-linejoin="round" d="M 23439,12031 L 23439,11881"/>
 <path fill="none" stroke="rgb(179,179,179)" stroke-linejoin="round" d="M 26231,12031 L 26231,11881"/>
 <path fill="none" stroke="rgb(179,179,179)" stroke-linejoin="round" d="M 26231,12031 L 26231,11881"/>
 <path fill="none" stroke="rgb(179,179,179)" stroke-linejoin="round" d="M 3900,11881 L 26231,11881"/>
 <path fill="none" stroke="rgb(179,179,179)" stroke-linejoin="round" d="M 3750,11881 L 3900,11881"/>
 <path fill="none" stroke="rgb(179,179,179)" stroke-linejoin="round" d="M 3750,11881 L 3900,11881"/>
 <path fill="none" stroke="rgb(179,179,179)" stroke-linejoin="round" d="M 3750,10746 L 3900,10746"/>
 <path fill="none" stroke="rgb(179,179,179)" stroke-linejoin="round" d="M 3750,10746 L 3900,10746"/>
 <path fill="none" stroke="rgb(179,179,179)" stroke-linejoin="round" d="M 3750,9610 L 3900,9610"/>
 <path fill="none" stroke="rgb(179,179,179)" stroke-linejoin="round" d="M 3750,9610 L 3900,9610"/>
 <path fill="none" stroke="rgb(179,179,179)" stroke-linejoin="round" d="M 3750,8475 L 3900,8475"/>
 <path fill="none" stroke="rgb(179,179,179)" stroke-linejoin="round" d="M 3750,8475 L 3900,8475"/>
 <path fill="none" stroke="rgb(179,179,179)" stroke-linejoin="round" d="M 3750,7339 L 3900,7339"/>
 <path fill="none" stroke="rgb(179,179,179)" stroke-linejoin="round" d="M 3750,7339 L 3900,7339"/>
 <path fill="none" stroke="rgb(179,179,179)" stroke-linejoin="round" d="M 3750,6205 L 3900,6205"/>
 <path fill="none" stroke="rgb(179,179,179)" stroke-linejoin="round" d="M 3750,6205 L 3900,6205"/>
 <path fill="none" stroke="rgb(179,179,179)" stroke-linejoin="round" d="M 3750,5069 L 3900,5069"/>
 <path fill="none" stroke="rgb(179,179,179)" stroke-linejoin="round" d="M 3750,5069 L 3900,5069"/>
 <path fill="none" stroke="rgb(179,179,179)" stroke-linejoin="round" d="M 3750,3934 L 3900,3934"/>
 <path fill="none" stroke="rgb(179,179,179)" stroke-linejoin="round" d="M 3750,3934 L 3900,3934"/>
 <path fill="none" stroke="rgb(179,179,179)" stroke-linejoin="round" d="M 3750,2798 L 3900,2798"/>
 <path fill="none" stroke="rgb(179,179,179)" stroke-linejoin="round" d="M 3750,2798 L 3900,2798"/>
 <path fill="none" stroke="rgb(179,179,179)" stroke-linejoin="round" d="M 3750,1662 L 3900,1662"/>
 <path fill="none" stroke="rgb(179,179,179)" stroke-linejoin="round" d="M 3750,1662 L 3900,1662"/>
 <path fill="none" stroke="rgb(179,179,179)" stroke-linejoin="round" d="M 3900,11881 L 3900,1662"/>
 <path fill="none" stroke="rgb(0,69,134)" stroke-width="80" stroke-linejoin="round" d="M 3900,2580 L 6691,4945 9483,6706 12274,7818 15065,8882 17856,9799 20648,10470 23439,11066 26231,11637"/>
 <path fill="rgb(0,69,134)" stroke="none" d="M 3775,2455 L 3775,2705 4025,2705 4025,2455 3775,2455 Z"/>
 <path fill="none" stroke="rgb(0,69,134)" stroke-linejoin="round" d="M 3775,2455 L 3775,2705 4025,2705 4025,2455 3775,2455 Z"/>
 <path fill="rgb(0,69,134)" stroke="none" d="M 6566,4820 L 6566,5070 6816,5070 6816,4820 6566,4820 Z"/>
 <path fill="none" stroke="rgb(0,69,134)" stroke-linejoin="round" d="M 6566,4820 L 6566,5070 6816,5070 6816,4820 6566,4820 Z"/>
 <path fill="rgb(0,69,134)" stroke="none" d="M 9358,6581 L 9358,6831 9608,6831 9608,6581 9358,6581 Z"/>
 <path fill="none" stroke="rgb(0,69,134)" stroke-linejoin="round" d="M 9358,6581 L 9358,6831 9608,6831 9608,6581 9358,6581 Z"/>
 <path fill="rgb(0,69,134)" stroke="none" d="M 12149,7693 L 12149,7943 12399,7943 12399,7693 12149,7693 Z"/>
 <path fill="none" stroke="rgb(0,69,134)" stroke-linejoin="round" d="M 12149,7693 L 12149,7943 12399,7943 12399,7693 12149,7693 Z"/>
 <path fill="rgb(0,69,134)" stroke="none" d="M 14941,8757 L 14941,9007 15190,9007 15190,8757 14941,8757 Z"/>
 <path fill="none" stroke="rgb(0,69,134)" stroke-linejoin="round" d="M 14941,8757 L 14941,9007 15190,9007 15190,8757 14941,8757 Z"/>
 <path fill="rgb(0,69,134)" stroke="none" d="M 17731,9674 L 17731,9924 17981,9924 17981,9674 17731,9674 Z"/>
 <path fill="none" stroke="rgb(0,69,134)" stroke-linejoin="round" d="M 17731,9674 L 17731,9924 17981,9924 17981,9674 17731,9674 Z"/>
 <path fill="rgb(0,69,134)" stroke="none" d="M 20523,10345 L 20523,10595 20773,10595 20773,10345 20523,10345 Z"/>
 <path fill="none" stroke="rgb(0,69,134)" stroke-linejoin="round" d="M 20523,10345 L 20523,10595 20773,10595 20773,10345 20523,10345 Z"/>
 <path fill="rgb(0,69,134)" stroke="none" d="M 23314,10941 L 23314,11191 23564,11191 23564,10941 23314,10941 Z"/>
 <path fill="none" stroke="rgb(0,69,134)" stroke-linejoin="round" d="M 23314,10941 L 23314,11191 23564,11191 23564,10941 23314,10941 Z"/>
 <path fill="rgb(0,69,134)" stroke="none" d="M 26106,11512 L 26106,11762 26356,11762 26356,11512 26106,11512 Z"/>
 <path fill="none" stroke="rgb(0,69,134)" stroke-linejoin="round" d="M 26106,11512 L 26106,11762 26356,11762 26356,11512 26106,11512 Z"/>
 <text class="TextShape"><tspan class="TextParagraph" font-family="Liberation Sans, sans-serif" font-size="353px" font-weight="400"><tspan class="TextPosition" x="3807" y="12449"><tspan fill="rgb(0,0,0)" stroke="none">2</tspan></tspan></tspan></text>
 <text class="TextShape"><tspan class="TextParagraph" font-family="Liberation Sans, sans-serif" font-size="353px" font-weight="400"><tspan class="TextPosition" x="6598" y="12449"><tspan fill="rgb(0,0,0)" stroke="none">3</tspan></tspan></tspan></text>
 <text class="TextShape"><tspan class="TextParagraph" font-family="Liberation Sans, sans-serif" font-size="353px" font-weight="400"><tspan class="TextPosition" x="9390" y="12449"><tspan fill="rgb(0,0,0)" stroke="none">4</tspan></tspan></tspan></text>
 <text class="TextShape"><tspan class="TextParagraph" font-family="Liberation Sans, sans-serif" font-size="353px" font-weight="400"><tspan class="TextPosition" x="12181" y="12449"><tspan fill="rgb(0,0,0)" stroke="none">5</tspan></tspan></tspan></text>
 <text class="TextShape"><tspan class="TextParagraph" font-family="Liberation Sans, sans-serif" font-size="353px" font-weight="400"><tspan class="TextPosition" x="14973" y="12449"><tspan fill="rgb(0,0,0)" stroke="none">6</tspan></tspan></tspan></text>
 <text class="TextShape"><tspan class="TextParagraph" font-family="Liberation Sans, sans-serif" font-size="353px" font-weight="400"><tspan class="TextPosition" x="17764" y="12449"><tspan fill="rgb(0,0,0)" stroke="none">7</tspan></tspan></tspan></text>
 <text class="TextShape"><tspan class="TextParagraph" font-family="Liberation Sans, sans-serif" font-size="353px" font-weight="400"><tspan class="TextPosition" x="20556" y="12449"><tspan fill="rgb(0,0,0)" stroke="none">8</tspan></tspan></tspan></text>
 <text class="TextShape"><tspan class="TextParagraph" font-family="Liberation Sans, sans-serif" font-size="353px" font-weight="400"><tspan class="TextPosition" x="23347" y="12449"><tspan fill="rgb(0,0,0)" stroke="none">9</tspan></tspan></tspan></text>
 <text class="TextShape"><tspan class="TextParagraph" font-family="Liberation Sans, sans-serif" font-size="353px" font-weight="400"><tspan class="TextPosition" x="26047" y="12449"><tspan fill="rgb(0,0,0)" stroke="none">10</tspan></tspan></tspan></text>
 <text class="TextShape"><tspan class="TextParagraph" font-family="Liberation Sans, sans-serif" font-size="353px" font-weight="400"><tspan class="TextPosition" x="1613" y="12002"><tspan fill="rgb(0,0,0)" stroke="none">12800000000</tspan></tspan></tspan></text>
 <text class="TextShape"><tspan class="TextParagraph" font-family="Liberation Sans, sans-serif" font-size="353px" font-weight="400"><tspan class="TextPosition" x="1613" y="10867"><tspan fill="rgb(0,0,0)" stroke="none">13300000000</tspan></tspan></tspan></text>
 <text class="TextShape"><tspan class="TextParagraph" font-family="Liberation Sans, sans-serif" font-size="353px" font-weight="400"><tspan class="TextPosition" x="1613" y="9731"><tspan fill="rgb(0,0,0)" stroke="none">13800000000</tspan></tspan></tspan></text>
 <text class="TextShape"><tspan class="TextParagraph" font-family="Liberation Sans, sans-serif" font-size="353px" font-weight="400"><tspan class="TextPosition" x="1613" y="8596"><tspan fill="rgb(0,0,0)" stroke="none">14300000000</tspan></tspan></tspan></text>
 <text class="TextShape"><tspan class="TextParagraph" font-family="Liberation Sans, sans-serif" font-size="353px" font-weight="400"><tspan class="TextPosition" x="1613" y="7460"><tspan fill="rgb(0,0,0)" stroke="none">14800000000</tspan></tspan></tspan></text>
 <text class="TextShape"><tspan class="TextParagraph" font-family="Liberation Sans, sans-serif" font-size="353px" font-weight="400"><tspan class="TextPosition" x="1613" y="6325"><tspan fill="rgb(0,0,0)" stroke="none">15300000000</tspan></tspan></tspan></text>
 <text class="TextShape"><tspan class="TextParagraph" font-family="Liberation Sans, sans-serif" font-size="353px" font-weight="400"><tspan class="TextPosition" x="1613" y="5189"><tspan fill="rgb(0,0,0)" stroke="none">15800000000</tspan></tspan></tspan></text>
 <text class="TextShape"><tspan class="TextParagraph" font-family="Liberation Sans, sans-serif" font-size="353px" font-weight="400"><tspan class="TextPosition" x="1613" y="4054"><tspan fill="rgb(0,0,0)" stroke="none">16300000000</tspan></tspan></tspan></text>
 <text class="TextShape"><tspan class="TextParagraph" font-family="Liberation Sans, sans-serif" font-size="353px" font-weight="400"><tspan class="TextPosition" x="1613" y="2918"><tspan fill="rgb(0,0,0)" stroke="none">16800000000</tspan></tspan></tspan></text>
 <text class="TextShape"><tspan class="TextParagraph" font-family="Liberation Sans, sans-serif" font-size="353px" font-weight="400"><tspan class="TextPosition" x="1613" y="1782"><tspan fill="rgb(0,0,0)" stroke="none">17300000000</tspan></tspan></tspan></text>
 <text class="TextShape"><tspan class="TextParagraph" font-family="Liberation Sans, sans-serif" font-size="459px" font-weight="400"><tspan class="TextPosition" x="11086" y="946"><tspan fill="rgb(0,0,0)" stroke="none">Lowest SSE for K Means Over 10 Trials</tspan></tspan></tspan></text>
 <path fill="none" stroke="rgb(0,69,134)" stroke-width="80" stroke-linejoin="round" d="M 27135,6892 L 27935,6892"/>
 <path fill="rgb(0,69,134)" stroke="none" d="M 27429,6787 L 27429,6997 27640,6997 27640,6787 27429,6787 Z"/>
 <path fill="none" stroke="rgb(0,69,134)" stroke-linejoin="round" d="M 27429,6787 L 27429,6997 27640,6997 27640,6787 27429,6787 Z"/>
 <text class="TextShape"><tspan class="TextParagraph" font-family="Liberation Sans, sans-serif" font-size="353px" font-weight="400"><tspan class="TextPosition" x="28035" y="7011"><tspan fill="rgb(0,0,0)" stroke="none">lowest_sse</tspan></tspan></tspan></text>
 <text class="TextShape"><tspan class="TextParagraph" font-family="Liberation Sans, sans-serif" font-size="318px" font-weight="400"><tspan class="TextPosition" x="13909" y="13192"><tspan fill="rgb(0,0,0)" stroke="none">K</tspan></tspan></tspan></text>
 <text class="TextShape" transform="rotate(-90 837 7315)"><tspan class="TextParagraph" font-family="Liberation Sans, sans-serif" font-size="318px" font-weight="400"><tspan class="TextPosition" x="837" y="7315"><tspan fill="rgb(0,0,0)" stroke="none">SSE</tspan></tspan></tspan></text>
</svg>