<?xml version="1.0" encoding="UTF-8"?>
<!DOCTYPE svg PUBLIC "-//W3C//DTD SVG 1.1//EN" "http://www.w3.org/Graphics/SVG/1.1/DTD/svg11.dtd">
<svg width="337mm" height="179mm" viewBox="0 0 33700 17900" version="1.1" xmlns="http://www.w3.org/2000/svg" xmlns:xlink="http://www.w3.org/1999/xlink" stroke-width="28.222" stroke-linejoin="round" xml:space="preserve">
 <path fill="rgb(255,255,255)" stroke="none" d="M 16864,17903 L 0,17903 0,0 33727,0 33727,17903 16864,17903 Z"/>
 <path fill="none" stroke="rgb(179,179,179)" stroke-linejoin="round" d="M 15426,15917 L 2597,15917 2597,1631 28254,1631 28254,15917 15426,15917 Z"/>
 <path fill="none" stroke="rgb(179,179,179)" stroke-linejoin="round" d="M 28254,15916 L 2597,15916"/>
 <path fill="none" stroke="rgb(179,179,179)" stroke-linejoin="round" d="M 28254,13431 L 2597,13431"/>
 <path fill="none" stroke="rgb(179,179,179)" stroke-linejoin="round" d="M 28254,10946 L 2597,10946"/>
 <path fill="none" stroke="rgb(179,179,179)" stroke-linejoin="round" d="M 28254,8462 L 2597,8462"/>
 <path fill="none" stroke="rgb(179,179,179)" stroke-linejoin="round" d="M 28254,5978 L 2597,5978"/>
 <path fill="none" stroke="rgb(179,179,179)" stroke-linejoin="round" d="M 28254,3493 L 2597,3493"/>
 <path fill="none" stroke="rgb(179,179,179)" stroke-linejoin="round" d="M 2597,16066 L 2597,15916"/>
 <path fill="none" stroke="rgb(179,179,179)" stroke-linejoin="round" d="M 2597,16066 L 2597,15916"/>
 <path fill="none" stroke="rgb(179,179,179)" stroke-linejoin="round" d="M 5162,16066 L 5162,15916"/>
 <path fill="none" stroke="rgb(179,179,179)" stroke-linejoin="round" d="M 5162,16066 L 5162,15916"/>
 <path fill="none" stroke="rgb(179,179,179)" stroke-linejoin="round" d="M 7728,16066 L 7728,15916"/>
 <path fill="none" stroke="rgb(179,179,179)" stroke-linejoin="round" d="M 7728,16066 L 7728,15916"/>
 <path fill="none" stroke="rgb(179,179,179)" stroke-linejoin="round" d="M 10294,16066 L 10294,15916"/>
 <path fill="none" stroke="rgb(179,179,179)" stroke-linejoin="round" d="M 10294,16066 L 10294,15916"/>
 <path fill="none" stroke="rgb(179,179,179)" stroke-linejoin="round" d="M 12860,16066 L 12860,15916"/>
 <path fill="none" stroke="rgb(179,179,179)" stroke-linejoin="round" d="M 12860,16066 L 12860,15916"/>
 <path fill="none" stroke="rgb(179,179,179)" stroke-linejoin="round" d="M 15426,16066 L 15426,15916"/>
 <path fill="none" stroke="rgb(179,179,179)" stroke-linejoin="round" d="M 15426,16066 L 15426,15916"/>
 <path fill="none" stroke="rgb(179,179,179)" stroke-linejoin="round" d="M 17990,16066 L 17990,15916"/>
 <path fill="none" stroke="rgb(179,179,179)" stroke-linejoin="round" d="M 17990,16066 L 17990,15916"/>
 <path fill="none" stroke="rgb(179,179,179)" stroke-linejoin="round" d="M 20556,16066 L 20556,15916"/>
 <path fill="none" stroke="rgb(179,179,179)" stroke-linejoin="round" d="M 20556,16066 L 20556,15916"/>
 <path fill="none" stroke="rgb(179,179,179)" stroke-linejoin="round" d="M 23122,16066 L 23122,15916"/>
 <path fill="none" stroke="rgb(179,179,179)" stroke-linejoin="round" d="M 23122,16066 L 23122,15916"/>
 <path fill="none" stroke="rgb(179,179,179)" stroke-linejoin="round" d="M 25688,16066 L 25688,15916"/>
 <path fill="none" stroke="rgb(179,179,179)" stroke-linejoin="round" d="M 25688,16066 L 25688,15916"/>
 <path fill="none" stroke="rgb(179,179,179)" stroke-linejoin="round" d="M 28254,16066 L 28254,15916"/>
 <path fill="none" stroke="rgb(179,179,179)" stroke-linejoin="round" d="M 28254,16066 L 28254,15916"/>
 <path fill="none" stroke="rgb(179,179,179)" stroke-linejoin="round" d="M 2597,15916 L 28254,15916"/>
 <path fill="none" stroke="rgb(179,179,179)" stroke-linejoin="round" d="M 2447,15916 L 2597,15916"/>
 <path fill="none" stroke="rgb(179,179,179)" stroke-linejoin="round" d="M 2447,15916 L 2597,15916"/>
 <path fill="none" stroke="rgb(179,179,179)" stroke-linejoin="round" d="M 2447,13431 L 2597,13431"/>
 <path fill="none" stroke="rgb(179,179,179)" stroke-linejoin="round" d="M 2447,13431 L 2597,13431"/>
 <path fill="none" stroke="rgb(179,179,179)" stroke-linejoin="round" d="M 2447,10946 L 2597,10946"/>
 <path fill="none" stroke="rgb(179,179,179)" stroke-linejoin="round" d="M 2447,10946 L 2597,10946"/>
 <path fill="none" stroke="rgb(179,179,179)" stroke-linejoin="round" d="M 2447,8462 L 2597,8462"/>
 <path fill="none" stroke="rgb(179,179,179)" stroke-linejoin="round" d="M 2447,8462 L 2597,8462"/>
 <path fill="none" stroke="rgb(179,179,179)" stroke-linejoin="round" d="M 2447,5978 L 2597,5978"/>
 <path fill="none" stroke="rgb(179,179,179)" stroke-linejoin="round" d="M 2447,5978 L 2597,5978"/>
 <path fill="none" stroke="rgb(179,179,179)" stroke-linejoin="round" d="M 2447,3493 L 2597,3493"/>
 <path fill="none" stroke="rgb(179,179,179)" stroke-linejoin="round" d="M 2447,3493 L 2597,3493"/>
 <path fill="none" stroke="rgb(179,179,179)" stroke-linejoin="round" d="M 2597,15916 L 2597,1630"/>
 <path fill="none" stroke="rgb(255,211,32)" stroke-width="80" stroke-linejoin="round" d="M 2853,8042 L 3110,8042 3366,10229 3623,10229 3879,9354 4136,9791 4393,8917 4649,9354 4906,9354 5162,9791 5419,10229 5675,9791 5932,9791 6189,9791 6445,9354 6702,10229 6958,8917 7215,9354 7472,8917 7728,9354 7985,8917 8241,8917 8498,8480 8754,8917 9011,8917 9268,8917 9524,8480 9781,8917 10037,8480 10294,8480 10550,8917 10807,8917 11064,8480 11320,9354 11577,8480 11833,8917 12090,8917 12347,9354 12603,9354 12860,9354 13116,8480 13373,8917 13629,8480 13886,8480 14143,8480 14399,8480 14656,8480 14912,8480 15169,7605 15426,8917 15682,8480 15939,8480 16195,8480 16452,8480 16708,8480 16964,8480 17221,8480 17477,8480 17734,7605 17990,8042 18247,7605 18503,8042 18760,8042 19017,8917 19273,7605 19530,8042 19786,5855 20043,7168 20300,5418 20556,6293 20813,4980 21069,6293 21326,4543 21582,4980 21839,4543 22096,4543 22352,4543 22609,4980 22865,3231 23122,3231 23378,3231 23635,3231 23892,2793 24148,3231 24405,3231 24661,3231 24918,3231 25175,3231 25431,3231 25688,3231 25944,2793 26201,3231 26457,2356 26714,2793 26971,1918 27227,2356 27484,1918 27740,2793 27997,1918 28254,2356"/>
 <path fill="none" stroke="rgb(255,66,14)" stroke-width="80" stroke-linejoin="round" d="M 2853,11978 L 3110,11978 3366,11978 3623,12416 3879,12416 4136,12416 4393,11104 4649,11541 4906,10229 5162,10229 5419,10666 5675,11541 5932,11104 6189,11104 6445,10666 6702,10666 6958,11104 7215,10229 7472,10666 7728,10229 7985,10666 8241,10229 8498,10229 8754,10229 9011,9354 9268,9354 9524,9354 9781,9354 10037,8917 10294,9354 10550,9354 10807,9354 11064,8917 11320,9354 11577,9354 11833,9354 12090,9354 12347,9354 12603,8042 12860,8480 13116,8042 13373,8480 13629,7605 13886,7605 14143,6730 14399,7605 14656,7605 14912,7605 15169,7168 15426,7605 15682,7605 15939,8042 16195,7605 16452,8042 16708,7168 16964,7605 17221,7168 17477,7168 17734,7168 17990,7605 18247,6293 18503,7168 18760,5855 19017,7168 19273,5418 19530,6730 19786,5855 20043,6293 20300,5855 20556,6293 20813,4980 21069,5418 21326,5418 21582,5855 21839,4543 22096,4980 22352,4543 22609,4980 22865,4543 23122,4543 23378,4543 23635,4543 23892,4543 24148,4543 24405,4543 24661,4980 24918,4543 25175,4980 25431,4980 25688,5418 25944,4980 26201,5418 26457,4980 26714,4980 26971,4980 27227,4980 27484,4980 27740,5418 27997,4980 28254,5418"/>
 <path fill="none" stroke="rgb(0,69,134)" stroke-width="80" stroke-linejoin="round" d="M 2853,15916 L 3110,15916 3366,13728 3623,14603 3879,13728 4136,14166 4393,13291 4649,13728 4906,11978 5162,12853 5419,10666 5675,13291 5932,11978 6189,11978 6445,11541 6702,12416 6958,11541 7215,11541 7472,11104 7728,11104 7985,10666 8241,11104 8498,10666 8754,10666 9011,10229 9268,10229 9524,9354 9781,9791 10037,9354 10294,9354 10550,9354 10807,9354 11064,9791 11320,9354 11577,9354 11833,9354 12090,9791 12347,9354 12603,9354 12860,9354 13116,8480 13373,8917 13629,8480 13886,8480 14143,7605 14399,8042 14656,7605 14912,7605 15169,7605 15426,8042 15682,7605 15939,8480 16195,8042 16452,8042 16708,8042 16964,8042 17221,7605 17477,8042 17734,7168 17990,7605 18247,7605 18503,7605 18760,7168 19017,7168 19273,7168 19530,7605 19786,6730 20043,6730 20300,6293 20556,6293 20813,6293 21069,6293 21326,5418 21582,5855 21839,5855 22096,5855 22352,4980 22609,4980 22865,4980 23122,5418 23378,4543 23635,4543 23892,4543 24148,4543 24405,4543 24661,4980 24918,4980 25175,5418 25431,4980 25688,5418 25944,5418 26201,5418 26457,5418 26714,5418 26971,4980 27227,5418 27484,4980 27740,5418 27997,5418 28254,5418"/>
 <text class="TextShape"><tspan class="TextParagraph" font-family="Liberation Sans, sans-serif" font-size="353px" font-weight="400"><tspan class="TextPosition" x="2504" y="16484"><tspan fill="rgb(0,0,0)" stroke="none">0</tspan></tspan></tspan></text>
 <text class="TextShape"><tspan class="TextParagraph" font-family="Liberation Sans, sans-serif" font-size="353px" font-weight="400"><tspan class="TextPosition" x="4977" y="16484"><tspan fill="rgb(0,0,0)" stroke="none">10</tspan></tspan></tspan></text>
 <text class="TextShape"><tspan class="TextParagraph" font-family="Liberation Sans, sans-serif" font-size="353px" font-weight="400"><tspan class="TextPosition" x="7543" y="16484"><tspan fill="rgb(0,0,0)" stroke="none">20</tspan></tspan></tspan></text>
 <text class="TextShape"><tspan class="TextParagraph" font-family="Liberation Sans, sans-serif" font-size="353px" font-weight="400"><tspan class="TextPosition" x="10109" y="16484"><tspan fill="rgb(0,0,0)" stroke="none">30</tspan></tspan></tspan></text>
 <text class="TextShape"><tspan class="TextParagraph" font-family="Liberation Sans, sans-serif" font-size="353px" font-weight="400"><tspan class="TextPosition" x="12675" y="16484"><tspan fill="rgb(0,0,0)" stroke="none">40</tspan></tspan></tspan></text>
 <text class="TextShape"><tspan class="TextParagraph" font-family="Liberation Sans, sans-serif" font-size="353px" font-weight="400"><tspan class="TextPosition" x="15241" y="16484"><tspan fill="rgb(0,0,0)" stroke="none">50</tspan></tspan></tspan></text>
 <text class="TextShape"><tspan class="TextParagraph" font-family="Liberation Sans, sans-serif" font-size="353px" font-weight="400"><tspan class="TextPosition" x="17806" y="16484"><tspan fill="rgb(0,0,0)" stroke="none">60</tspan></tspan></tspan></text>
 <text class="TextShape"><tspan class="TextParagraph" font-family="Liberation Sans, sans-serif" font-size="353px" font-weight="400"><tspan class="TextPosition" x="20372" y="16484"><tspan fill="rgb(0,0,0)" stroke="none">70</tspan></tspan></tspan></text>
 <text class="TextShape"><tspan class="TextParagraph" font-family="Liberation Sans, sans-serif" font-size="353px" font-weight="400"><tspan class="TextPosition" x="22938" y="16484"><tspan fill="rgb(0,0,0)" stroke="none">80</tspan></tspan></tspan></text>
 <text class="TextShape"><tspan class="TextParagraph" font-family="Liberation Sans, sans-serif" font-size="353px" font-weight="400"><tspan class="TextPosition" x="25504" y="16484"><tspan fill="rgb(0,0,0)" stroke="none">90</tspan></tspan></tspan></text>
 <text class="TextShape"><tspan class="TextParagraph" font-family="Liberation Sans, sans-serif" font-size="353px" font-weight="400"><tspan class="TextPosition" x="27977" y="16484"><tspan fill="rgb(0,0,0)" stroke="none">100</tspan></tspan></tspan></text>
 <text class="TextShape"><tspan class="TextParagraph" font-family="Liberation Sans, sans-serif" font-size="353px" font-weight="400"><tspan class="TextPosition" x="2162" y="16037"><tspan fill="rgb(0,0,0)" stroke="none">0</tspan></tspan></tspan></text>
 <text class="TextShape"><tspan class="TextParagraph" font-family="Liberation Sans, sans-serif" font-size="353px" font-weight="400"><tspan class="TextPosition" x="1686" y="13552"><tspan fill="rgb(0,0,0)" stroke="none">0.02</tspan></tspan></tspan></text>
 <text class="TextShape"><tspan class="TextParagraph" font-family="Liberation Sans, sans-serif" font-size="353px" font-weight="400"><tspan class="TextPosition" x="1686" y="11067"><tspan fill="rgb(0,0,0)" stroke="none">0.04</tspan></tspan></tspan></text>
 <text class="TextShape"><tspan class="TextParagraph" font-family="Liberation Sans, sans-serif" font-size="353px" font-weight="400"><tspan class="TextPosition" x="1686" y="8582"><tspan fill="rgb(0,0,0)" stroke="none">0.06</tspan></tspan></tspan></text>
 <text class="TextShape"><tspan class="TextParagraph" font-family="Liberation Sans, sans-serif" font-size="353px" font-weight="400"><tspan class="TextPosition" x="1686" y="6098"><tspan fill="rgb(0,0,0)" stroke="none">0.08</tspan></tspan></tspan></text>
 <text class="TextShape"><tspan class="TextParagraph" font-family="Liberation Sans, sans-serif" font-size="353px" font-weight="400"><tspan class="TextPosition" x="1871" y="3613"><tspan fill="rgb(0,0,0)" stroke="none">0.1</tspan></tspan></tspan></text>
 <text class="TextShape"><tspan class="TextParagraph" font-family="Liberation Sans, sans-serif" font-size="459px" font-weight="400"><tspan class="TextPosition" x="14972" y="1029"><tspan fill="rgb(0,0,0)" stroke="none">Effect of k on Error</tspan></tspan></tspan></text>
 <path fill="none" stroke="rgb(0,69,134)" stroke-width="80" stroke-linejoin="round" d="M 29324,8453 L 30124,8453"/>
 <path fill="none" stroke="rgb(255,66,14)" stroke-width="80" stroke-linejoin="round" d="M 29324,8951 L 30124,8951"/>
 <path fill="none" stroke="rgb(255,211,32)" stroke-width="80" stroke-linejoin="round" d="M 29324,9448 L 30124,9448"/>
 <text class="TextShape"><tspan class="TextParagraph" font-family="Liberation Sans, sans-serif" font-size="353px" font-weight="400"><tspan class="TextPosition" x="30224" y="8573"><tspan fill="rgb(0,0,0)" stroke="none">Training Error</tspan></tspan></tspan></text>
 <text class="TextShape"><tspan class="TextParagraph" font-family="Liberation Sans, sans-serif" font-size="353px" font-weight="400"><tspan class="TextPosition" x="30224" y="9070"><tspan fill="rgb(0,0,0)" stroke="none">Leave One Out Error</tspan></tspan></tspan></text>
 <text class="TextShape"><tspan class="TextParagraph" font-family="Liberation Sans, sans-serif" font-size="353px" font-weight="400"><tspan class="TextPosition" x="30224" y="9568"><tspan fill="rgb(0,0,0)" stroke="none">Testing Error</tspan></tspan></tspan></text>
 <text class="TextShape"><tspan class="TextParagraph" font-family="Liberation Sans, sans-serif" font-size="353px" font-weight="400"><tspan class="TextPosition" x="15030" y="17309"><tspan fill="rgb(0,0,0)" stroke="none">k</tspan></tspan></tspan></text>
 <text class="TextShape" transform="rotate(-90 837 9454)"><tspan class="TextParagraph" font-family="Liberation Sans, sans-serif" font-size="353px" font-weight="400"><tspan class="TextPosition" x="837" y="9454"><tspan fill="rgb(0,0,0)" stroke="none">Error</tspan></tspan></tspan></text>
</svg>