<?xml version="1.0" encoding="UTF-8"?>
<!DOCTYPE svg PUBLIC "-//W3C//DTD SVG 1.1//EN" "http://www.w3.org/Graphics/SVG/1.1/DTD/svg11.dtd">
<svg width="269mm" height="137mm" viewBox="0 0 26900 13700" version="1.1" xmlns="http://www.w3.org/2000/svg" xmlns:xlink="http://www.w3.org/1999/xlink" stroke-width="28.222" stroke-linejoin="round" xml:space="preserve">
 <path fill="rgb(255,255,255)" stroke="none" d="M 13430,13733 L 0,13733 0,0 26860,0 26860,13733 13430,13733 Z"/>
 <path fill="none" stroke="rgb(179,179,179)" stroke-linejoin="round" d="M 12178,11831 L 2169,11831 2169,1662 22186,1662 22186,11831 12178,11831 Z"/>
 <path fill="none" stroke="rgb(179,179,179)" stroke-linejoin="round" d="M 22185,11830 L 2169,11830"/>
 <path fill="none" stroke="rgb(179,179,179)" stroke-linejoin="round" d="M 22185,9796 L 2169,9796"/>
 <path fill="none" stroke="rgb(179,179,179)" stroke-linejoin="round" d="M 22185,7762 L 2169,7762"/>
 <path fill="none" stroke="rgb(179,179,179)" stroke-linejoin="round" d="M 22185,5729 L 2169,5729"/>
 <path fill="none" stroke="rgb(179,179,179)" stroke-linejoin="round" d="M 22185,3695 L 2169,3695"/>
 <path fill="none" stroke="rgb(179,179,179)" stroke-linejoin="round" d="M 22185,1661 L 2169,1661"/>
 <path fill="none" stroke="rgb(179,179,179)" stroke-linejoin="round" d="M 2168,11980 L 2168,11830"/>
 <path fill="none" stroke="rgb(179,179,179)" stroke-linejoin="round" d="M 2168,11980 L 2168,11830"/>
 <path fill="none" stroke="rgb(179,179,179)" stroke-linejoin="round" d="M 7173,11980 L 7173,11830"/>
 <path fill="none" stroke="rgb(179,179,179)" stroke-linejoin="round" d="M 7173,11980 L 7173,11830"/>
 <path fill="none" stroke="rgb(179,179,179)" stroke-linejoin="round" d="M 12177,11980 L 12177,11830"/>
 <path fill="none" stroke="rgb(179,179,179)" stroke-linejoin="round" d="M 12177,11980 L 12177,11830"/>
 <path fill="none" stroke="rgb(179,179,179)" stroke-linejoin="round" d="M 17181,11980 L 17181,11830"/>
 <path fill="none" stroke="rgb(179,179,179)" stroke-linejoin="round" d="M 17181,11980 L 17181,11830"/>
 <path fill="none" stroke="rgb(179,179,179)" stroke-linejoin="round" d="M 22185,11980 L 22185,11830"/>
 <path fill="none" stroke="rgb(179,179,179)" stroke-linejoin="round" d="M 22185,11980 L 22185,11830"/>
 <path fill="none" stroke="rgb(179,179,179)" stroke-linejoin="round" d="M 2169,11830 L 22185,11830"/>
 <path fill="none" stroke="rgb(179,179,179)" stroke-linejoin="round" d="M 2019,11830 L 2169,11830"/>
 <path fill="none" stroke="rgb(179,179,179)" stroke-linejoin="round" d="M 2019,11830 L 2169,11830"/>
 <path fill="none" stroke="rgb(179,179,179)" stroke-linejoin="round" d="M 2019,9796 L 2169,9796"/>
 <path fill="none" stroke="rgb(179,179,179)" stroke-linejoin="round" d="M 2019,9796 L 2169,9796"/>
 <path fill="none" stroke="rgb(179,179,179)" stroke-linejoin="round" d="M 2019,7762 L 2169,7762"/>
 <path fill="none" stroke="rgb(179,179,179)" stroke-linejoin="round" d="M 2019,7762 L 2169,7762"/>
 <path fill="none" stroke="rgb(179,179,179)" stroke-linejoin="round" d="M 2019,5729 L 2169,5729"/>
 <path fill="none" stroke="rgb(179,179,179)" stroke-linejoin="round" d="M 2019,5729 L 2169,5729"/>
 <path fill="none" stroke="rgb(179,179,179)" stroke-linejoin="round" d="M 2019,3695 L 2169,3695"/>
 <path fill="none" stroke="rgb(179,179,179)" stroke-linejoin="round" d="M 2019,3695 L 2169,3695"/>
 <path fill="none" stroke="rgb(179,179,179)" stroke-linejoin="round" d="M 2019,1661 L 2169,1661"/>
 <path fill="none" stroke="rgb(179,179,179)" stroke-linejoin="round" d="M 2019,1661 L 2169,1661"/>
 <path fill="none" stroke="rgb(179,179,179)" stroke-linejoin="round" d="M 2169,11830 L 2169,1661"/>
 <path fill="none" stroke="rgb(255,66,14)" stroke-width="80" stroke-linejoin="round" d="M 2169,11170 L 7173,8811 12177,6835 17181,3800 22185,7884"/>
 <path fill="rgb(255,66,14)" stroke="none" d="M 2044,11170 L 2169,11295 2294,11170 2169,11045 2044,11170 Z"/>
 <path fill="none" stroke="rgb(255,66,14)" stroke-linejoin="round" d="M 2044,11170 L 2169,11295 2294,11170 2169,11045 2044,11170 Z"/>
 <path fill="rgb(255,66,14)" stroke="none" d="M 7048,8811 L 7173,8936 7298,8811 7173,8686 7048,8811 Z"/>
 <path fill="none" stroke="rgb(255,66,14)" stroke-linejoin="round" d="M 7048,8811 L 7173,8936 7298,8811 7173,8686 7048,8811 Z"/>
 <path fill="rgb(255,66,14)" stroke="none" d="M 12052,6835 L 12177,6959 12302,6835 12177,6710 12052,6835 Z"/>
 <path fill="none" stroke="rgb(255,66,14)" stroke-linejoin="round" d="M 12052,6835 L 12177,6959 12302,6835 12177,6710 12052,6835 Z"/>
 <path fill="rgb(255,66,14)" stroke="none" d="M 17056,3800 L 17181,3925 17306,3800 17181,3675 17056,3800 Z"/>
 <path fill="none" stroke="rgb(255,66,14)" stroke-linejoin="round" d="M 17056,3800 L 17181,3925 17306,3800 17181,3675 17056,3800 Z"/>
 <path fill="rgb(255,66,14)" stroke="none" d="M 22060,7884 L 22185,8009 22310,7884 22185,7759 22060,7884 Z"/>
 <path fill="none" stroke="rgb(255,66,14)" stroke-linejoin="round" d="M 22060,7884 L 22185,8009 22310,7884 22185,7759 22060,7884 Z"/>
 <path fill="none" stroke="rgb(0,69,134)" stroke-width="80" stroke-linejoin="round" d="M 2169,11392 L 7173,8775 12177,6855 17181,3493 22185,7585"/>
 <path fill="rgb(0,69,134)" stroke="none" d="M 2044,11267 L 2044,11517 2294,11517 2294,11267 2044,11267 Z"/>
 <path fill="none" stroke="rgb(0,69,134)" stroke-linejoin="round" d="M 2044,11267 L 2044,11517 2294,11517 2294,11267 2044,11267 Z"/>
 <path fill="rgb(0,69,134)" stroke="none" d="M 7048,8650 L 7048,8900 7298,8900 7298,8650 7048,8650 Z"/>
 <path fill="none" stroke="rgb(0,69,134)" stroke-linejoin="round" d="M 7048,8650 L 7048,8900 7298,8900 7298,8650 7048,8650 Z"/>
 <path fill="rgb(0,69,134)" stroke="none" d="M 12052,6730 L 12052,6979 12302,6979 12302,6730 12052,6730 Z"/>
 <path fill="none" stroke="rgb(0,69,134)" stroke-linejoin="round" d="M 12052,6730 L 12052,6979 12302,6979 12302,6730 12052,6730 Z"/>
 <path fill="rgb(0,69,134)" stroke="none" d="M 17056,3368 L 17056,3618 17306,3618 17306,3368 17056,3368 Z"/>
 <path fill="none" stroke="rgb(0,69,134)" stroke-linejoin="round" d="M 17056,3368 L 17056,3618 17306,3618 17306,3368 17056,3368 Z"/>
 <path fill="rgb(0,69,134)" stroke="none" d="M 22060,7460 L 22060,7710 22310,7710 22310,7460 22060,7460 Z"/>
 <path fill="none" stroke="rgb(0,69,134)" stroke-linejoin="round" d="M 22060,7460 L 22060,7710 22310,7710 22310,7460 22060,7460 Z"/>
 <text class="TextShape"><tspan class="TextParagraph" font-family="Liberation Sans, sans-serif" font-size="353px" font-weight="400"><tspan class="TextPosition" x="1652" y="12398"><tspan fill="rgb(0,0,0)" stroke="none">0.0001</tspan></tspan></tspan></text>
 <text class="TextShape"><tspan class="TextParagraph" font-family="Liberation Sans, sans-serif" font-size="353px" font-weight="400"><tspan class="TextPosition" x="6749" y="12398"><tspan fill="rgb(0,0,0)" stroke="none">0.001</tspan></tspan></tspan></text>
 <text class="TextShape"><tspan class="TextParagraph" font-family="Liberation Sans, sans-serif" font-size="353px" font-weight="400"><tspan class="TextPosition" x="11846" y="12398"><tspan fill="rgb(0,0,0)" stroke="none">0.01</tspan></tspan></tspan></text>
 <text class="TextShape"><tspan class="TextParagraph" font-family="Liberation Sans, sans-serif" font-size="353px" font-weight="400"><tspan class="TextPosition" x="16944" y="12398"><tspan fill="rgb(0,0,0)" stroke="none">0.1</tspan></tspan></tspan></text>
 <text class="TextShape"><tspan class="TextParagraph" font-family="Liberation Sans, sans-serif" font-size="353px" font-weight="400"><tspan class="TextPosition" x="22093" y="12398"><tspan fill="rgb(0,0,0)" stroke="none">1</tspan></tspan></tspan></text>
 <text class="TextShape"><tspan class="TextParagraph" font-family="Liberation Sans, sans-serif" font-size="353px" font-weight="400"><tspan class="TextPosition" x="1549" y="11951"><tspan fill="rgb(0,0,0)" stroke="none">15</tspan></tspan></tspan></text>
 <text class="TextShape"><tspan class="TextParagraph" font-family="Liberation Sans, sans-serif" font-size="353px" font-weight="400"><tspan class="TextPosition" x="1549" y="9917"><tspan fill="rgb(0,0,0)" stroke="none">20</tspan></tspan></tspan></text>
 <text class="TextShape"><tspan class="TextParagraph" font-family="Liberation Sans, sans-serif" font-size="353px" font-weight="400"><tspan class="TextPosition" x="1549" y="7883"><tspan fill="rgb(0,0,0)" stroke="none">25</tspan></tspan></tspan></text>
 <text class="TextShape"><tspan class="TextParagraph" font-family="Liberation Sans, sans-serif" font-size="353px" font-weight="400"><tspan class="TextPosition" x="1549" y="5849"><tspan fill="rgb(0,0,0)" stroke="none">30</tspan></tspan></tspan></text>
 <text class="TextShape"><tspan class="TextParagraph" font-family="Liberation Sans, sans-serif" font-size="353px" font-weight="400"><tspan class="TextPosition" x="1549" y="3815"><tspan fill="rgb(0,0,0)" stroke="none">35</tspan></tspan></tspan></text>
 <text class="TextShape"><tspan class="TextParagraph" font-family="Liberation Sans, sans-serif" font-size="353px" font-weight="400"><tspan class="TextPosition" x="1549" y="1781"><tspan fill="rgb(0,0,0)" stroke="none">40</tspan></tspan></tspan></text>
 <text class="TextShape"><tspan class="TextParagraph" font-family="Liberation Sans, sans-serif" font-size="459px" font-weight="400"><tspan class="TextPosition" x="10189" y="945"><tspan fill="rgb(0,0,0)" stroke="none">Effect of Learning Rate on Part 1</tspan></tspan></tspan></text>
 <path fill="none" stroke="rgb(0,69,134)" stroke-width="80" stroke-linejoin="round" d="M 22933,6617 L 23733,6617"/>
 <path fill="rgb(0,69,134)" stroke="none" d="M 23227,6512 L 23227,6723 23438,6723 23438,6512 23227,6512 Z"/>
 <path fill="none" stroke="rgb(0,69,134)" stroke-linejoin="round" d="M 23227,6512 L 23227,6723 23438,6723 23438,6512 23227,6512 Z"/>
 <path fill="none" stroke="rgb(255,66,14)" stroke-width="80" stroke-linejoin="round" d="M 22933,7114 L 23733,7114"/>
 <path fill="rgb(255,66,14)" stroke="none" d="M 23227,7114 L 23333,7220 23438,7114 23333,7009 23227,7114 Z"/>
 <path fill="none" stroke="rgb(255,66,14)" stroke-linejoin="round" d="M 23227,7114 L 23333,7220 23438,7114 23333,7009 23227,7114 Z"/>
 <text class="TextShape"><tspan class="TextParagraph" font-family="Liberation Sans, sans-serif" font-size="353px" font-weight="400"><tspan class="TextPosition" x="23833" y="6737"><tspan fill="rgb(0,0,0)" stroke="none">training_accuracy</tspan></tspan></tspan></text>
 <text class="TextShape"><tspan class="TextParagraph" font-family="Liberation Sans, sans-serif" font-size="353px" font-weight="400"><tspan class="TextPosition" x="23833" y="7234"><tspan fill="rgb(0,0,0)" stroke="none">test_accuracy</tspan></tspan></tspan></text>
 <text class="TextShape"><tspan class="TextParagraph" font-family="Liberation Sans, sans-serif" font-size="318px" font-weight="400"><tspan class="TextPosition" x="10882" y="13139"><tspan fill="rgb(0,0,0)" stroke="none">Learning Rate</tspan></tspan></tspan></text>
 <text class="TextShape" transform="rotate(-90 837 7632)"><tspan class="TextParagraph" font-family="Liberation Sans, sans-serif" font-size="318px" font-weight="400"><tspan class="TextPosition" x="837" y="7632"><tspan fill="rgb(0,0,0)" stroke="none">Accuracy</tspan></tspan></tspan></text>
</svg>