<?xml version="1.0" encoding="UTF-8"?>
<!DOCTYPE svg PUBLIC "-//W3C//DTD SVG 1.1//EN" "http://www.w3.org/Graphics/SVG/1.1/DTD/svg11.dtd">
<svg width="291mm" height="138mm" viewBox="0 0 29100 13800" version="1.1" xmlns="http://www.w3.org/2000/svg" xmlns:xlink="http://www.w3.org/1999/xlink" stroke-width="28.222" stroke-linejoin="round" xml:space="preserve">
 <path fill="rgb(255,255,255)" stroke="none" d="M 14540,13812 L 0,13812 0,0 29080,0 29080,13812 14540,13812 Z"/>
 <path fill="none" stroke="rgb(179,179,179)" stroke-linejoin="round" d="M 13400,11908 L 2504,11908 2504,1666 24296,1666 24296,11908 13400,11908 Z"/>
 <path fill="none" stroke="rgb(179,179,179)" stroke-linejoin="round" d="M 24296,11907 L 2504,11907"/>
 <path fill="none" stroke="rgb(179,179,179)" stroke-linejoin="round" d="M 24296,9858 L 2504,9858"/>
 <path fill="none" stroke="rgb(179,179,179)" stroke-linejoin="round" d="M 24296,7809 L 2504,7809"/>
 <path fill="none" stroke="rgb(179,179,179)" stroke-linejoin="round" d="M 24296,5762 L 2504,5762"/>
 <path fill="none" stroke="rgb(179,179,179)" stroke-linejoin="round" d="M 24296,3713 L 2504,3713"/>
 <path fill="none" stroke="rgb(179,179,179)" stroke-linejoin="round" d="M 24296,1665 L 2504,1665"/>
 <path fill="none" stroke="rgb(179,179,179)" stroke-linejoin="round" d="M 2504,12057 L 2504,11907"/>
 <path fill="none" stroke="rgb(179,179,179)" stroke-linejoin="round" d="M 2504,12057 L 2504,11907"/>
 <path fill="none" stroke="rgb(179,179,179)" stroke-linejoin="round" d="M 7952,12057 L 7952,11907"/>
 <path fill="none" stroke="rgb(179,179,179)" stroke-linejoin="round" d="M 7952,12057 L 7952,11907"/>
 <path fill="none" stroke="rgb(179,179,179)" stroke-linejoin="round" d="M 13400,12057 L 13400,11907"/>
 <path fill="none" stroke="rgb(179,179,179)" stroke-linejoin="round" d="M 13400,12057 L 13400,11907"/>
 <path fill="none" stroke="rgb(179,179,179)" stroke-linejoin="round" d="M 18847,12057 L 18847,11907"/>
 <path fill="none" stroke="rgb(179,179,179)" stroke-linejoin="round" d="M 18847,12057 L 18847,11907"/>
 <path fill="none" stroke="rgb(179,179,179)" stroke-linejoin="round" d="M 24296,12057 L 24296,11907"/>
 <path fill="none" stroke="rgb(179,179,179)" stroke-linejoin="round" d="M 24296,12057 L 24296,11907"/>
 <path fill="none" stroke="rgb(179,179,179)" stroke-linejoin="round" d="M 2504,11907 L 24296,11907"/>
 <path fill="none" stroke="rgb(179,179,179)" stroke-linejoin="round" d="M 2354,11907 L 2504,11907"/>
 <path fill="none" stroke="rgb(179,179,179)" stroke-linejoin="round" d="M 2354,11907 L 2504,11907"/>
 <path fill="none" stroke="rgb(179,179,179)" stroke-linejoin="round" d="M 2354,9858 L 2504,9858"/>
 <path fill="none" stroke="rgb(179,179,179)" stroke-linejoin="round" d="M 2354,9858 L 2504,9858"/>
 <path fill="none" stroke="rgb(179,179,179)" stroke-linejoin="round" d="M 2354,7809 L 2504,7809"/>
 <path fill="none" stroke="rgb(179,179,179)" stroke-linejoin="round" d="M 2354,7809 L 2504,7809"/>
 <path fill="none" stroke="rgb(179,179,179)" stroke-linejoin="round" d="M 2354,5762 L 2504,5762"/>
 <path fill="none" stroke="rgb(179,179,179)" stroke-linejoin="round" d="M 2354,5762 L 2504,5762"/>
 <path fill="none" stroke="rgb(179,179,179)" stroke-linejoin="round" d="M 2354,3713 L 2504,3713"/>
 <path fill="none" stroke="rgb(179,179,179)" stroke-linejoin="round" d="M 2354,3713 L 2504,3713"/>
 <path fill="none" stroke="rgb(179,179,179)" stroke-linejoin="round" d="M 2354,1665 L 2504,1665"/>
 <path fill="none" stroke="rgb(179,179,179)" stroke-linejoin="round" d="M 2354,1665 L 2504,1665"/>
 <path fill="none" stroke="rgb(179,179,179)" stroke-linejoin="round" d="M 2504,11907 L 2504,1665"/>
 <path fill="none" stroke="rgb(0,69,134)" stroke-width="80" stroke-linejoin="round" d="M 2504,2484 L 7952,4369 13400,4246 18847,8383 24296,7850"/>
 <path fill="rgb(0,69,134)" stroke="none" d="M 2379,2359 L 2379,2609 2629,2609 2629,2359 2379,2359 Z"/>
 <path fill="none" stroke="rgb(0,69,134)" stroke-linejoin="round" d="M 2379,2359 L 2379,2609 2629,2609 2629,2359 2379,2359 Z"/>
 <path fill="rgb(0,69,134)" stroke="none" d="M 7827,4244 L 7827,4494 8077,4494 8077,4244 7827,4244 Z"/>
 <path fill="none" stroke="rgb(0,69,134)" stroke-linejoin="round" d="M 7827,4244 L 7827,4494 8077,4494 8077,4244 7827,4244 Z"/>
 <path fill="rgb(0,69,134)" stroke="none" d="M 13275,4121 L 13275,4371 13525,4371 13525,4121 13275,4121 Z"/>
 <path fill="none" stroke="rgb(0,69,134)" stroke-linejoin="round" d="M 13275,4121 L 13275,4371 13525,4371 13525,4121 13275,4121 Z"/>
 <path fill="rgb(0,69,134)" stroke="none" d="M 18722,8258 L 18722,8508 18972,8508 18972,8258 18722,8258 Z"/>
 <path fill="none" stroke="rgb(0,69,134)" stroke-linejoin="round" d="M 18722,8258 L 18722,8508 18972,8508 18972,8258 18722,8258 Z"/>
 <path fill="rgb(0,69,134)" stroke="none" d="M 24171,7725 L 24171,7975 24421,7975 24421,7725 24171,7725 Z"/>
 <path fill="none" stroke="rgb(0,69,134)" stroke-linejoin="round" d="M 24171,7725 L 24171,7975 24421,7975 24421,7725 24171,7725 Z"/>
 <text class="TextShape"><tspan class="TextParagraph" font-family="Liberation Sans, sans-serif" font-size="353px" font-weight="400"><tspan class="TextPosition" x="2266" y="12475"><tspan fill="rgb(0,0,0)" stroke="none">0.1</tspan></tspan></tspan></text>
 <text class="TextShape"><tspan class="TextParagraph" font-family="Liberation Sans, sans-serif" font-size="353px" font-weight="400"><tspan class="TextPosition" x="7714" y="12475"><tspan fill="rgb(0,0,0)" stroke="none">0.2</tspan></tspan></tspan></text>
 <text class="TextShape"><tspan class="TextParagraph" font-family="Liberation Sans, sans-serif" font-size="353px" font-weight="400"><tspan class="TextPosition" x="13162" y="12475"><tspan fill="rgb(0,0,0)" stroke="none">0.3</tspan></tspan></tspan></text>
 <text class="TextShape"><tspan class="TextParagraph" font-family="Liberation Sans, sans-serif" font-size="353px" font-weight="400"><tspan class="TextPosition" x="18610" y="12475"><tspan fill="rgb(0,0,0)" stroke="none">0.4</tspan></tspan></tspan></text>
 <text class="TextShape"><tspan class="TextParagraph" font-family="Liberation Sans, sans-serif" font-size="353px" font-weight="400"><tspan class="TextPosition" x="24059" y="12475"><tspan fill="rgb(0,0,0)" stroke="none">0.5</tspan></tspan></tspan></text>
 <text class="TextShape"><tspan class="TextParagraph" font-family="Liberation Sans, sans-serif" font-size="353px" font-weight="400"><tspan class="TextPosition" x="1593" y="12028"><tspan fill="rgb(0,0,0)" stroke="none">32.5</tspan></tspan></tspan></text>
 <text class="TextShape"><tspan class="TextParagraph" font-family="Liberation Sans, sans-serif" font-size="353px" font-weight="400"><tspan class="TextPosition" x="1884" y="9979"><tspan fill="rgb(0,0,0)" stroke="none">33</tspan></tspan></tspan></text>
 <text class="TextShape"><tspan class="TextParagraph" font-family="Liberation Sans, sans-serif" font-size="353px" font-weight="400"><tspan class="TextPosition" x="1593" y="7930"><tspan fill="rgb(0,0,0)" stroke="none">33.5</tspan></tspan></tspan></text>
 <text class="TextShape"><tspan class="TextParagraph" font-family="Liberation Sans, sans-serif" font-size="353px" font-weight="400"><tspan class="TextPosition" x="1884" y="5882"><tspan fill="rgb(0,0,0)" stroke="none">34</tspan></tspan></tspan></text>
 <text class="TextShape"><tspan class="TextParagraph" font-family="Liberation Sans, sans-serif" font-size="353px" font-weight="400"><tspan class="TextPosition" x="1593" y="3833"><tspan fill="rgb(0,0,0)" stroke="none">34.5</tspan></tspan></tspan></text>
 <text class="TextShape"><tspan class="TextParagraph" font-family="Liberation Sans, sans-serif" font-size="353px" font-weight="400"><tspan class="TextPosition" x="1884" y="1785"><tspan fill="rgb(0,0,0)" stroke="none">35</tspan></tspan></tspan></text>
 <text class="TextShape"><tspan class="TextParagraph" font-family="Liberation Sans, sans-serif" font-size="459px" font-weight="400"><tspan class="TextPosition" x="11828" y="947"><tspan fill="rgb(0,0,0)" stroke="none">Effect of Drop out on Part 3</tspan></tspan></tspan></text>
 <path fill="none" stroke="rgb(0,69,134)" stroke-width="80" stroke-linejoin="round" d="M 25233,6905 L 26033,6905"/>
 <path fill="rgb(0,69,134)" stroke="none" d="M 25527,6800 L 25527,7010 25738,7010 25738,6800 25527,6800 Z"/>
 <path fill="none" stroke="rgb(0,69,134)" stroke-linejoin="round" d="M 25527,6800 L 25527,7010 25738,7010 25738,6800 25527,6800 Z"/>
 <text class="TextShape"><tspan class="TextParagraph" font-family="Liberation Sans, sans-serif" font-size="353px" font-weight="400"><tspan class="TextPosition" x="26133" y="7024"><tspan fill="rgb(0,0,0)" stroke="none">testing_accuracy</tspan></tspan></tspan></text>
 <text class="TextShape"><tspan class="TextParagraph" font-family="Liberation Sans, sans-serif" font-size="318px" font-weight="400"><tspan class="TextPosition" x="12416" y="13218"><tspan fill="rgb(0,0,0)" stroke="none">Drop Out</tspan></tspan></tspan></text>
 <text class="TextShape" transform="rotate(-90 837 7672)"><tspan class="TextParagraph" font-family="Liberation Sans, sans-serif" font-size="318px" font-weight="400"><tspan class="TextPosition" x="837" y="7672"><tspan fill="rgb(0,0,0)" stroke="none">Accuracy</tspan></tspan></tspan></text>
</svg>