<?xml version="1.0" encoding="UTF-8"?>
<!DOCTYPE svg PUBLIC "-//W3C//DTD SVG 1.1//EN" "http://www.w3.org/Graphics/SVG/1.1/DTD/svg11.dtd">
<svg width="291mm" height="138mm" viewBox="0 0 29100 13800" version="1.1" xmlns="http://www.w3.org/2000/svg" xmlns:xlink="http://www.w3.org/1999/xlink" stroke-width="28.222" stroke-linejoin="round" xml:space="preserve">
 <path fill="rgb(255,255,255)" stroke="none" d="M 14567,13786 L 0,13786 0,0 29133,0 29133,13786 14567,13786 Z"/>
 <path fill="none" stroke="rgb(179,179,179)" stroke-linejoin="round" d="M 13354,11883 L 2214,11883 2214,1664 24494,1664 24494,11883 13354,11883 Z"/>
 <path fill="none" stroke="rgb(179,179,179)" stroke-linejoin="round" d="M 24494,11882 L 2214,11882"/>
 <path fill="none" stroke="rgb(179,179,179)" stroke-linejoin="round" d="M 24494,10604 L 2214,10604"/>
 <path fill="none" stroke="rgb(179,179,179)" stroke-linejoin="round" d="M 24494,9327 L 2214,9327"/>
 <path fill="none" stroke="rgb(179,179,179)" stroke-linejoin="round" d="M 24494,8049 L 2214,8049"/>
 <path fill="none" stroke="rgb(179,179,179)" stroke-linejoin="round" d="M 24494,6773 L 2214,6773"/>
 <path fill="none" stroke="rgb(179,179,179)" stroke-linejoin="round" d="M 24494,5495 L 2214,5495"/>
 <path fill="none" stroke="rgb(179,179,179)" stroke-linejoin="round" d="M 24494,4218 L 2214,4218"/>
 <path fill="none" stroke="rgb(179,179,179)" stroke-linejoin="round" d="M 24494,2940 L 2214,2940"/>
 <path fill="none" stroke="rgb(179,179,179)" stroke-linejoin="round" d="M 24494,1663 L 2214,1663"/>
 <path fill="none" stroke="rgb(179,179,179)" stroke-linejoin="round" d="M 2214,12032 L 2214,11882"/>
 <path fill="none" stroke="rgb(179,179,179)" stroke-linejoin="round" d="M 2214,12032 L 2214,11882"/>
 <path fill="none" stroke="rgb(179,179,179)" stroke-linejoin="round" d="M 7784,12032 L 7784,11882"/>
 <path fill="none" stroke="rgb(179,179,179)" stroke-linejoin="round" d="M 7784,12032 L 7784,11882"/>
 <path fill="none" stroke="rgb(179,179,179)" stroke-linejoin="round" d="M 13354,12032 L 13354,11882"/>
 <path fill="none" stroke="rgb(179,179,179)" stroke-linejoin="round" d="M 13354,12032 L 13354,11882"/>
 <path fill="none" stroke="rgb(179,179,179)" stroke-linejoin="round" d="M 18923,12032 L 18923,11882"/>
 <path fill="none" stroke="rgb(179,179,179)" stroke-linejoin="round" d="M 18923,12032 L 18923,11882"/>
 <path fill="none" stroke="rgb(179,179,179)" stroke-linejoin="round" d="M 24494,12032 L 24494,11882"/>
 <path fill="none" stroke="rgb(179,179,179)" stroke-linejoin="round" d="M 24494,12032 L 24494,11882"/>
 <path fill="none" stroke="rgb(179,179,179)" stroke-linejoin="round" d="M 2214,11882 L 24494,11882"/>
 <path fill="none" stroke="rgb(179,179,179)" stroke-linejoin="round" d="M 2064,11882 L 2214,11882"/>
 <path fill="none" stroke="rgb(179,179,179)" stroke-linejoin="round" d="M 2064,11882 L 2214,11882"/>
 <path fill="none" stroke="rgb(179,179,179)" stroke-linejoin="round" d="M 2064,10604 L 2214,10604"/>
 <path fill="none" stroke="rgb(179,179,179)" stroke-linejoin="round" d="M 2064,10604 L 2214,10604"/>
 <path fill="none" stroke="rgb(179,179,179)" stroke-linejoin="round" d="M 2064,9327 L 2214,9327"/>
 <path fill="none" stroke="rgb(179,179,179)" stroke-linejoin="round" d="M 2064,9327 L 2214,9327"/>
 <path fill="none" stroke="rgb(179,179,179)" stroke-linejoin="round" d="M 2064,8049 L 2214,8049"/>
 <path fill="none" stroke="rgb(179,179,179)" stroke-linejoin="round" d="M 2064,8049 L 2214,8049"/>
 <path fill="none" stroke="rgb(179,179,179)" stroke-linejoin="round" d="M 2064,6773 L 2214,6773"/>
 <path fill="none" stroke="rgb(179,179,179)" stroke-linejoin="round" d="M 2064,6773 L 2214,6773"/>
 <path fill="none" stroke="rgb(179,179,179)" stroke-linejoin="round" d="M 2064,5495 L 2214,5495"/>
 <path fill="none" stroke="rgb(179,179,179)" stroke-linejoin="round" d="M 2064,5495 L 2214,5495"/>
 <path fill="none" stroke="rgb(179,179,179)" stroke-linejoin="round" d="M 2064,4218 L 2214,4218"/>
 <path fill="none" stroke="rgb(179,179,179)" stroke-linejoin="round" d="M 2064,4218 L 2214,4218"/>
 <path fill="none" stroke="rgb(179,179,179)" stroke-linejoin="round" d="M 2064,2940 L 2214,2940"/>
 <path fill="none" stroke="rgb(179,179,179)" stroke-linejoin="round" d="M 2064,2940 L 2214,2940"/>
 <path fill="none" stroke="rgb(179,179,179)" stroke-linejoin="round" d="M 2064,1663 L 2214,1663"/>
 <path fill="none" stroke="rgb(179,179,179)" stroke-linejoin="round" d="M 2064,1663 L 2214,1663"/>
 <path fill="none" stroke="rgb(179,179,179)" stroke-linejoin="round" d="M 2214,11882 L 2214,1663"/>
 <path fill="none" stroke="rgb(0,69,134)" stroke-width="80" stroke-linejoin="round" d="M 2214,3456 L 7784,3382 13354,3157 18923,3001 24494,9327"/>
 <path fill="rgb(0,69,134)" stroke="none" d="M 2089,3331 L 2089,3581 2339,3581 2339,3331 2089,3331 Z"/>
 <path fill="none" stroke="rgb(0,69,134)" stroke-linejoin="round" d="M 2089,3331 L 2089,3581 2339,3581 2339,3331 2089,3331 Z"/>
 <path fill="rgb(0,69,134)" stroke="none" d="M 7659,3257 L 7659,3507 7909,3507 7909,3257 7659,3257 Z"/>
 <path fill="none" stroke="rgb(0,69,134)" stroke-linejoin="round" d="M 7659,3257 L 7659,3507 7909,3507 7909,3257 7659,3257 Z"/>
 <path fill="rgb(0,69,134)" stroke="none" d="M 13229,3032 L 13229,3282 13479,3282 13479,3032 13229,3032 Z"/>
 <path fill="none" stroke="rgb(0,69,134)" stroke-linejoin="round" d="M 13229,3032 L 13229,3282 13479,3282 13479,3032 13229,3032 Z"/>
 <path fill="rgb(0,69,134)" stroke="none" d="M 18798,2876 L 18798,3126 19048,3126 19048,2876 18798,2876 Z"/>
 <path fill="none" stroke="rgb(0,69,134)" stroke-linejoin="round" d="M 18798,2876 L 18798,3126 19048,3126 19048,2876 18798,2876 Z"/>
 <path fill="rgb(0,69,134)" stroke="none" d="M 24369,9202 L 24369,9452 24619,9452 24619,9202 24369,9202 Z"/>
 <path fill="none" stroke="rgb(0,69,134)" stroke-linejoin="round" d="M 24369,9202 L 24369,9452 24619,9452 24619,9202 24369,9202 Z"/>
 <text class="TextShape"><tspan class="TextParagraph" font-family="Liberation Sans, sans-serif" font-size="353px" font-weight="400"><tspan class="TextPosition" x="2121" y="12450"><tspan fill="rgb(0,0,0)" stroke="none">0</tspan></tspan></tspan></text>
 <text class="TextShape"><tspan class="TextParagraph" font-family="Liberation Sans, sans-serif" font-size="353px" font-weight="400"><tspan class="TextPosition" x="7453" y="12450"><tspan fill="rgb(0,0,0)" stroke="none">0.25</tspan></tspan></tspan></text>
 <text class="TextShape"><tspan class="TextParagraph" font-family="Liberation Sans, sans-serif" font-size="353px" font-weight="400"><tspan class="TextPosition" x="13116" y="12450"><tspan fill="rgb(0,0,0)" stroke="none">0.5</tspan></tspan></tspan></text>
 <text class="TextShape"><tspan class="TextParagraph" font-family="Liberation Sans, sans-serif" font-size="353px" font-weight="400"><tspan class="TextPosition" x="18593" y="12450"><tspan fill="rgb(0,0,0)" stroke="none">0.75</tspan></tspan></tspan></text>
 <text class="TextShape"><tspan class="TextParagraph" font-family="Liberation Sans, sans-serif" font-size="353px" font-weight="400"><tspan class="TextPosition" x="24402" y="12450"><tspan fill="rgb(0,0,0)" stroke="none">1</tspan></tspan></tspan></text>
 <text class="TextShape"><tspan class="TextParagraph" font-family="Liberation Sans, sans-serif" font-size="353px" font-weight="400"><tspan class="TextPosition" x="1779" y="12003"><tspan fill="rgb(0,0,0)" stroke="none">0</tspan></tspan></tspan></text>
 <text class="TextShape"><tspan class="TextParagraph" font-family="Liberation Sans, sans-serif" font-size="353px" font-weight="400"><tspan class="TextPosition" x="1779" y="10725"><tspan fill="rgb(0,0,0)" stroke="none">5</tspan></tspan></tspan></text>
 <text class="TextShape"><tspan class="TextParagraph" font-family="Liberation Sans, sans-serif" font-size="353px" font-weight="400"><tspan class="TextPosition" x="1594" y="9448"><tspan fill="rgb(0,0,0)" stroke="none">10</tspan></tspan></tspan></text>
 <text class="TextShape"><tspan class="TextParagraph" font-family="Liberation Sans, sans-serif" font-size="353px" font-weight="400"><tspan class="TextPosition" x="1594" y="8170"><tspan fill="rgb(0,0,0)" stroke="none">15</tspan></tspan></tspan></text>
 <text class="TextShape"><tspan class="TextParagraph" font-family="Liberation Sans, sans-serif" font-size="353px" font-weight="400"><tspan class="TextPosition" x="1594" y="6893"><tspan fill="rgb(0,0,0)" stroke="none">20</tspan></tspan></tspan></text>
 <text class="TextShape"><tspan class="TextParagraph" font-family="Liberation Sans, sans-serif" font-size="353px" font-weight="400"><tspan class="TextPosition" x="1594" y="5615"><tspan fill="rgb(0,0,0)" stroke="none">25</tspan></tspan></tspan></text>
 <text class="TextShape"><tspan class="TextParagraph" font-family="Liberation Sans, sans-serif" font-size="353px" font-weight="400"><tspan class="TextPosition" x="1594" y="4338"><tspan fill="rgb(0,0,0)" stroke="none">30</tspan></tspan></tspan></text>
 <text class="TextShape"><tspan class="TextParagraph" font-family="Liberation Sans, sans-serif" font-size="353px" font-weight="400"><tspan class="TextPosition" x="1594" y="3060"><tspan fill="rgb(0,0,0)" stroke="none">35</tspan></tspan></tspan></text>
 <text class="TextShape"><tspan class="TextParagraph" font-family="Liberation Sans, sans-serif" font-size="353px" font-weight="400"><tspan class="TextPosition" x="1594" y="1783"><tspan fill="rgb(0,0,0)" stroke="none">40</tspan></tspan></tspan></text>
 <text class="TextShape"><tspan class="TextParagraph" font-family="Liberation Sans, sans-serif" font-size="459px" font-weight="400"><tspan class="TextPosition" x="11603" y="946"><tspan fill="rgb(0,0,0)" stroke="none">Effect of Momentum on Part 3</tspan></tspan></tspan></text>
 <path fill="none" stroke="rgb(0,69,134)" stroke-width="80" stroke-linejoin="round" d="M 25286,6892 L 26086,6892"/>
 <path fill="rgb(0,69,134)" stroke="none" d="M 25580,6787 L 25580,6997 25791,6997 25791,6787 25580,6787 Z"/>
 <path fill="none" stroke="rgb(0,69,134)" stroke-linejoin="round" d="M 25580,6787 L 25580,6997 25791,6997 25791,6787 25580,6787 Z"/>
 <text class="TextShape"><tspan class="TextParagraph" font-family="Liberation Sans, sans-serif" font-size="353px" font-weight="400"><tspan class="TextPosition" x="26186" y="7011"><tspan fill="rgb(0,0,0)" stroke="none">testing_accuracy</tspan></tspan></tspan></text>
 <text class="TextShape"><tspan class="TextParagraph" font-family="Liberation Sans, sans-serif" font-size="318px" font-weight="400"><tspan class="TextPosition" x="12284" y="13192"><tspan fill="rgb(0,0,0)" stroke="none">Momentum</tspan></tspan></tspan></text>
 <text class="TextShape" transform="rotate(-90 837 7659)"><tspan class="TextParagraph" font-family="Liberation Sans, sans-serif" font-size="318px" font-weight="400"><tspan class="TextPosition" x="837" y="7659"><tspan fill="rgb(0,0,0)" stroke="none">Accuracy</tspan></tspan></tspan></text>
</svg>