<?xml version="1.0" encoding="UTF-8"?>
<!DOCTYPE svg PUBLIC "-//W3C//DTD SVG 1.1//EN" "http://www.w3.org/Graphics/SVG/1.1/DTD/svg11.dtd">
<svg width="291mm" height="137mm" viewBox="0 0 29100 13700" version="1.1" xmlns="http://www.w3.org/2000/svg" xmlns:xlink="http://www.w3.org/1999/xlink" stroke-width="28.222" stroke-linejoin="round" xml:space="preserve">
 <path fill="rgb(255,255,255)" stroke="none" d="M 14565,13679 L 0,13679 0,0 29130,0 29130,13679 14565,13679 Z"/>
 <path fill="none" stroke="rgb(179,179,179)" stroke-linejoin="round" d="M 13353,11778 L 2214,11778 2214,1660 24491,1660 24491,11778 13353,11778 Z"/>
 <path fill="none" stroke="rgb(179,179,179)" stroke-linejoin="round" d="M 24490,11777 L 2214,11777"/>
 <path fill="none" stroke="rgb(179,179,179)" stroke-linejoin="round" d="M 24490,10512 L 2214,10512"/>
 <path fill="none" stroke="rgb(179,179,179)" stroke-linejoin="round" d="M 24490,9247 L 2214,9247"/>
 <path fill="none" stroke="rgb(179,179,179)" stroke-linejoin="round" d="M 24490,7982 L 2214,7982"/>
 <path fill="none" stroke="rgb(179,179,179)" stroke-linejoin="round" d="M 24490,6718 L 2214,6718"/>
 <path fill="none" stroke="rgb(179,179,179)" stroke-linejoin="round" d="M 24490,5453 L 2214,5453"/>
 <path fill="none" stroke="rgb(179,179,179)" stroke-linejoin="round" d="M 24490,4188 L 2214,4188"/>
 <path fill="none" stroke="rgb(179,179,179)" stroke-linejoin="round" d="M 24490,2923 L 2214,2923"/>
 <path fill="none" stroke="rgb(179,179,179)" stroke-linejoin="round" d="M 24490,1659 L 2214,1659"/>
 <path fill="none" stroke="rgb(179,179,179)" stroke-linejoin="round" d="M 2214,11927 L 2214,11777"/>
 <path fill="none" stroke="rgb(179,179,179)" stroke-linejoin="round" d="M 2214,11927 L 2214,11777"/>
 <path fill="none" stroke="rgb(179,179,179)" stroke-linejoin="round" d="M 7783,11927 L 7783,11777"/>
 <path fill="none" stroke="rgb(179,179,179)" stroke-linejoin="round" d="M 7783,11927 L 7783,11777"/>
 <path fill="none" stroke="rgb(179,179,179)" stroke-linejoin="round" d="M 13352,11927 L 13352,11777"/>
 <path fill="none" stroke="rgb(179,179,179)" stroke-linejoin="round" d="M 13352,11927 L 13352,11777"/>
 <path fill="none" stroke="rgb(179,179,179)" stroke-linejoin="round" d="M 18921,11927 L 18921,11777"/>
 <path fill="none" stroke="rgb(179,179,179)" stroke-linejoin="round" d="M 18921,11927 L 18921,11777"/>
 <path fill="none" stroke="rgb(179,179,179)" stroke-linejoin="round" d="M 24490,11927 L 24490,11777"/>
 <path fill="none" stroke="rgb(179,179,179)" stroke-linejoin="round" d="M 24490,11927 L 24490,11777"/>
 <path fill="none" stroke="rgb(179,179,179)" stroke-linejoin="round" d="M 2214,11777 L 24490,11777"/>
 <path fill="none" stroke="rgb(179,179,179)" stroke-linejoin="round" d="M 2064,11777 L 2214,11777"/>
 <path fill="none" stroke="rgb(179,179,179)" stroke-linejoin="round" d="M 2064,11777 L 2214,11777"/>
 <path fill="none" stroke="rgb(179,179,179)" stroke-linejoin="round" d="M 2064,10512 L 2214,10512"/>
 <path fill="none" stroke="rgb(179,179,179)" stroke-linejoin="round" d="M 2064,10512 L 2214,10512"/>
 <path fill="none" stroke="rgb(179,179,179)" stroke-linejoin="round" d="M 2064,9247 L 2214,9247"/>
 <path fill="none" stroke="rgb(179,179,179)" stroke-linejoin="round" d="M 2064,9247 L 2214,9247"/>
 <path fill="none" stroke="rgb(179,179,179)" stroke-linejoin="round" d="M 2064,7982 L 2214,7982"/>
 <path fill="none" stroke="rgb(179,179,179)" stroke-linejoin="round" d="M 2064,7982 L 2214,7982"/>
 <path fill="none" stroke="rgb(179,179,179)" stroke-linejoin="round" d="M 2064,6718 L 2214,6718"/>
 <path fill="none" stroke="rgb(179,179,179)" stroke-linejoin="round" d="M 2064,6718 L 2214,6718"/>
 <path fill="none" stroke="rgb(179,179,179)" stroke-linejoin="round" d="M 2064,5453 L 2214,5453"/>
 <path fill="none" stroke="rgb(179,179,179)" stroke-linejoin="round" d="M 2064,5453 L 2214,5453"/>
 <path fill="none" stroke="rgb(179,179,179)" stroke-linejoin="round" d="M 2064,4188 L 2214,4188"/>
 <path fill="none" stroke="rgb(179,179,179)" stroke-linejoin="round" d="M 2064,4188 L 2214,4188"/>
 <path fill="none" stroke="rgb(179,179,179)" stroke-linejoin="round" d="M 2064,2923 L 2214,2923"/>
 <path fill="none" stroke="rgb(179,179,179)" stroke-linejoin="round" d="M 2064,2923 L 2214,2923"/>
 <path fill="none" stroke="rgb(179,179,179)" stroke-linejoin="round" d="M 2064,1659 L 2214,1659"/>
 <path fill="none" stroke="rgb(179,179,179)" stroke-linejoin="round" d="M 2064,1659 L 2214,1659"/>
 <path fill="none" stroke="rgb(179,179,179)" stroke-linejoin="round" d="M 2214,11777 L 2214,1659"/>
 <path fill="none" stroke="rgb(0,69,134)" stroke-width="80" stroke-linejoin="round" d="M 2214,2941 L 7783,7706 13352,9247 18921,9247 24490,9247"/>
 <path fill="rgb(0,69,134)" stroke="none" d="M 2089,2816 L 2089,3066 2339,3066 2339,2816 2089,2816 Z"/>
 <path fill="none" stroke="rgb(0,69,134)" stroke-linejoin="round" d="M 2089,2816 L 2089,3066 2339,3066 2339,2816 2089,2816 Z"/>
 <path fill="rgb(0,69,134)" stroke="none" d="M 7658,7581 L 7658,7831 7908,7831 7908,7581 7658,7581 Z"/>
 <path fill="none" stroke="rgb(0,69,134)" stroke-linejoin="round" d="M 7658,7581 L 7658,7831 7908,7831 7908,7581 7658,7581 Z"/>
 <path fill="rgb(0,69,134)" stroke="none" d="M 13227,9122 L 13227,9372 13477,9372 13477,9122 13227,9122 Z"/>
 <path fill="none" stroke="rgb(0,69,134)" stroke-linejoin="round" d="M 13227,9122 L 13227,9372 13477,9372 13477,9122 13227,9122 Z"/>
 <path fill="rgb(0,69,134)" stroke="none" d="M 18796,9122 L 18796,9372 19046,9372 19046,9122 18796,9122 Z"/>
 <path fill="none" stroke="rgb(0,69,134)" stroke-linejoin="round" d="M 18796,9122 L 18796,9372 19046,9372 19046,9122 18796,9122 Z"/>
 <path fill="rgb(0,69,134)" stroke="none" d="M 24365,9122 L 24365,9372 24615,9372 24615,9122 24365,9122 Z"/>
 <path fill="none" stroke="rgb(0,69,134)" stroke-linejoin="round" d="M 24365,9122 L 24365,9372 24615,9372 24615,9122 24365,9122 Z"/>
 <text class="TextShape"><tspan class="TextParagraph" font-family="Liberation Sans, sans-serif" font-size="353px" font-weight="400"><tspan class="TextPosition" x="2121" y="12345"><tspan fill="rgb(0,0,0)" stroke="none">0</tspan></tspan></tspan></text>
 <text class="TextShape"><tspan class="TextParagraph" font-family="Liberation Sans, sans-serif" font-size="353px" font-weight="400"><tspan class="TextPosition" x="7452" y="12345"><tspan fill="rgb(0,0,0)" stroke="none">0.25</tspan></tspan></tspan></text>
 <text class="TextShape"><tspan class="TextParagraph" font-family="Liberation Sans, sans-serif" font-size="353px" font-weight="400"><tspan class="TextPosition" x="13114" y="12345"><tspan fill="rgb(0,0,0)" stroke="none">0.5</tspan></tspan></tspan></text>
 <text class="TextShape"><tspan class="TextParagraph" font-family="Liberation Sans, sans-serif" font-size="353px" font-weight="400"><tspan class="TextPosition" x="18591" y="12345"><tspan fill="rgb(0,0,0)" stroke="none">0.75</tspan></tspan></tspan></text>
 <text class="TextShape"><tspan class="TextParagraph" font-family="Liberation Sans, sans-serif" font-size="353px" font-weight="400"><tspan class="TextPosition" x="24398" y="12345"><tspan fill="rgb(0,0,0)" stroke="none">1</tspan></tspan></tspan></text>
 <text class="TextShape"><tspan class="TextParagraph" font-family="Liberation Sans, sans-serif" font-size="353px" font-weight="400"><tspan class="TextPosition" x="1779" y="11898"><tspan fill="rgb(0,0,0)" stroke="none">0</tspan></tspan></tspan></text>
 <text class="TextShape"><tspan class="TextParagraph" font-family="Liberation Sans, sans-serif" font-size="353px" font-weight="400"><tspan class="TextPosition" x="1779" y="10633"><tspan fill="rgb(0,0,0)" stroke="none">5</tspan></tspan></tspan></text>
 <text class="TextShape"><tspan class="TextParagraph" font-family="Liberation Sans, sans-serif" font-size="353px" font-weight="400"><tspan class="TextPosition" x="1594" y="9368"><tspan fill="rgb(0,0,0)" stroke="none">10</tspan></tspan></tspan></text>
 <text class="TextShape"><tspan class="TextParagraph" font-family="Liberation Sans, sans-serif" font-size="353px" font-weight="400"><tspan class="TextPosition" x="1594" y="8103"><tspan fill="rgb(0,0,0)" stroke="none">15</tspan></tspan></tspan></text>
 <text class="TextShape"><tspan class="TextParagraph" font-family="Liberation Sans, sans-serif" font-size="353px" font-weight="400"><tspan class="TextPosition" x="1594" y="6838"><tspan fill="rgb(0,0,0)" stroke="none">20</tspan></tspan></tspan></text>
 <text class="TextShape"><tspan class="TextParagraph" font-family="Liberation Sans, sans-serif" font-size="353px" font-weight="400"><tspan class="TextPosition" x="1594" y="5573"><tspan fill="rgb(0,0,0)" stroke="none">25</tspan></tspan></tspan></text>
 <text class="TextShape"><tspan class="TextParagraph" font-family="Liberation Sans, sans-serif" font-size="353px" font-weight="400"><tspan class="TextPosition" x="1594" y="4308"><tspan fill="rgb(0,0,0)" stroke="none">30</tspan></tspan></tspan></text>
 <text class="TextShape"><tspan class="TextParagraph" font-family="Liberation Sans, sans-serif" font-size="353px" font-weight="400"><tspan class="TextPosition" x="1594" y="3043"><tspan fill="rgb(0,0,0)" stroke="none">35</tspan></tspan></tspan></text>
 <text class="TextShape"><tspan class="TextParagraph" font-family="Liberation Sans, sans-serif" font-size="353px" font-weight="400"><tspan class="TextPosition" x="1594" y="1779"><tspan fill="rgb(0,0,0)" stroke="none">40</tspan></tspan></tspan></text>
 <text class="TextShape"><tspan class="TextParagraph" font-family="Liberation Sans, sans-serif" font-size="459px" font-weight="400"><tspan class="TextPosition" x="11310" y="944"><tspan fill="rgb(0,0,0)" stroke="none">Effect of Weight Decay on Part 3</tspan></tspan></tspan></text>
 <path fill="none" stroke="rgb(0,69,134)" stroke-width="80" stroke-linejoin="round" d="M 25283,6839 L 26083,6839"/>
 <path fill="rgb(0,69,134)" stroke="none" d="M 25577,6734 L 25577,6944 25788,6944 25788,6734 25577,6734 Z"/>
 <path fill="none" stroke="rgb(0,69,134)" stroke-linejoin="round" d="M 25577,6734 L 25577,6944 25788,6944 25788,6734 25577,6734 Z"/>
 <text class="TextShape"><tspan class="TextParagraph" font-family="Liberation Sans, sans-serif" font-size="353px" font-weight="400"><tspan class="TextPosition" x="26183" y="6958"><tspan fill="rgb(0,0,0)" stroke="none">testing_accuracy</tspan></tspan></tspan></text>
 <text class="TextShape"><tspan class="TextParagraph" font-family="Liberation Sans, sans-serif" font-size="318px" font-weight="400"><tspan class="TextPosition" x="12083" y="13085"><tspan fill="rgb(0,0,0)" stroke="none">Weight Decay</tspan></tspan></tspan></text>
 <text class="TextShape" transform="rotate(-90 837 7604)"><tspan class="TextParagraph" font-family="Liberation Sans, sans-serif" font-size="318px" font-weight="400"><tspan class="TextPosition" x="837" y="7604"><tspan fill="rgb(0,0,0)" stroke="none">Accuracy</tspan></tspan></tspan></text>
</svg>