<?xml version="1.0" encoding="UTF-8"?>
<!DOCTYPE svg PUBLIC "-//W3C//DTD SVG 1.1//EN" "http://www.w3.org/Graphics/SVG/1.1/DTD/svg11.dtd">
<svg width="268mm" height="138mm" viewBox="0 0 26800 13800" version="1.1" xmlns="http://www.w3.org/2000/svg" xmlns:xlink="http://www.w3.org/1999/xlink" stroke-width="28.222" stroke-linejoin="round" xml:space="preserve">
 <path fill="rgb(255,255,255)" stroke="none" d="M 13416,13812 L 0,13812 0,0 26832,0 26832,13812 13416,13812 Z"/>
 <path fill="none" stroke="rgb(179,179,179)" stroke-linejoin="round" d="M 12164,11908 L 2168,11908 2168,1467 22159,1467 22159,11908 12164,11908 Z"/>
 <path fill="none" stroke="rgb(179,179,179)" stroke-linejoin="round" d="M 22159,11907 L 2168,11907"/>
 <path fill="none" stroke="rgb(179,179,179)" stroke-linejoin="round" d="M 22159,9973 L 2168,9973"/>
 <path fill="none" stroke="rgb(179,179,179)" stroke-linejoin="round" d="M 22159,8039 L 2168,8039"/>
 <path fill="none" stroke="rgb(179,179,179)" stroke-linejoin="round" d="M 22159,6106 L 2168,6106"/>
 <path fill="none" stroke="rgb(179,179,179)" stroke-linejoin="round" d="M 22159,4173 L 2168,4173"/>
 <path fill="none" stroke="rgb(179,179,179)" stroke-linejoin="round" d="M 22159,2239 L 2168,2239"/>
 <path fill="none" stroke="rgb(179,179,179)" stroke-linejoin="round" d="M 2167,12057 L 2167,11907"/>
 <path fill="none" stroke="rgb(179,179,179)" stroke-linejoin="round" d="M 2167,12057 L 2167,11907"/>
 <path fill="none" stroke="rgb(179,179,179)" stroke-linejoin="round" d="M 7165,12057 L 7165,11907"/>
 <path fill="none" stroke="rgb(179,179,179)" stroke-linejoin="round" d="M 7165,12057 L 7165,11907"/>
 <path fill="none" stroke="rgb(179,179,179)" stroke-linejoin="round" d="M 12163,12057 L 12163,11907"/>
 <path fill="none" stroke="rgb(179,179,179)" stroke-linejoin="round" d="M 12163,12057 L 12163,11907"/>
 <path fill="none" stroke="rgb(179,179,179)" stroke-linejoin="round" d="M 17161,12057 L 17161,11907"/>
 <path fill="none" stroke="rgb(179,179,179)" stroke-linejoin="round" d="M 17161,12057 L 17161,11907"/>
 <path fill="none" stroke="rgb(179,179,179)" stroke-linejoin="round" d="M 22159,12057 L 22159,11907"/>
 <path fill="none" stroke="rgb(179,179,179)" stroke-linejoin="round" d="M 22159,12057 L 22159,11907"/>
 <path fill="none" stroke="rgb(179,179,179)" stroke-linejoin="round" d="M 2168,11907 L 22159,11907"/>
 <path fill="none" stroke="rgb(179,179,179)" stroke-linejoin="round" d="M 2018,11907 L 2168,11907"/>
 <path fill="none" stroke="rgb(179,179,179)" stroke-linejoin="round" d="M 2018,11907 L 2168,11907"/>
 <path fill="none" stroke="rgb(179,179,179)" stroke-linejoin="round" d="M 2018,9973 L 2168,9973"/>
 <path fill="none" stroke="rgb(179,179,179)" stroke-linejoin="round" d="M 2018,9973 L 2168,9973"/>
 <path fill="none" stroke="rgb(179,179,179)" stroke-linejoin="round" d="M 2018,8039 L 2168,8039"/>
 <path fill="none" stroke="rgb(179,179,179)" stroke-linejoin="round" d="M 2018,8039 L 2168,8039"/>
 <path fill="none" stroke="rgb(179,179,179)" stroke-linejoin="round" d="M 2018,6106 L 2168,6106"/>
 <path fill="none" stroke="rgb(179,179,179)" stroke-linejoin="round" d="M 2018,6106 L 2168,6106"/>
 <path fill="none" stroke="rgb(179,179,179)" stroke-linejoin="round" d="M 2018,4173 L 2168,4173"/>
 <path fill="none" stroke="rgb(179,179,179)" stroke-linejoin="round" d="M 2018,4173 L 2168,4173"/>
 <path fill="none" stroke="rgb(179,179,179)" stroke-linejoin="round" d="M 2018,2239 L 2168,2239"/>
 <path fill="none" stroke="rgb(179,179,179)" stroke-linejoin="round" d="M 2018,2239 L 2168,2239"/>
 <path fill="none" stroke="rgb(179,179,179)" stroke-linejoin="round" d="M 2168,11907 L 2168,1466"/>
 <path fill="none" stroke="rgb(255,66,14)" stroke-width="80" stroke-linejoin="round" d="M 2168,9323 L 7166,7246 12164,3055 17161,5457 22159,11520"/>
 <path fill="rgb(255,66,14)" stroke="none" d="M 2043,9323 L 2168,9448 2293,9323 2168,9198 2043,9323 Z"/>
 <path fill="none" stroke="rgb(255,66,14)" stroke-linejoin="round" d="M 2043,9323 L 2168,9448 2293,9323 2168,9198 2043,9323 Z"/>
 <path fill="rgb(255,66,14)" stroke="none" d="M 7041,7246 L 7166,7371 7291,7246 7166,7121 7041,7246 Z"/>
 <path fill="none" stroke="rgb(255,66,14)" stroke-linejoin="round" d="M 7041,7246 L 7166,7371 7291,7246 7166,7121 7041,7246 Z"/>
 <path fill="rgb(255,66,14)" stroke="none" d="M 12039,3055 L 12164,3180 12289,3055 12164,2930 12039,3055 Z"/>
 <path fill="none" stroke="rgb(255,66,14)" stroke-linejoin="round" d="M 12039,3055 L 12164,3180 12289,3055 12164,2930 12039,3055 Z"/>
 <path fill="rgb(255,66,14)" stroke="none" d="M 17036,5457 L 17161,5582 17286,5457 17161,5332 17036,5457 Z"/>
 <path fill="none" stroke="rgb(255,66,14)" stroke-linejoin="round" d="M 17036,5457 L 17161,5582 17286,5457 17161,5332 17036,5457 Z"/>
 <path fill="rgb(255,66,14)" stroke="none" d="M 22034,11520 L 22159,11645 22284,11520 22159,11395 22034,11520 Z"/>
 <path fill="none" stroke="rgb(255,66,14)" stroke-linejoin="round" d="M 22034,11520 L 22159,11645 22284,11520 22159,11395 22034,11520 Z"/>
 <path fill="none" stroke="rgb(0,69,134)" stroke-width="80" stroke-linejoin="round" d="M 2168,9366 L 7166,7016 12164,3008 17161,5330 22159,11535"/>
 <path fill="rgb(0,69,134)" stroke="none" d="M 2043,9241 L 2043,9491 2293,9491 2293,9241 2043,9241 Z"/>
 <path fill="none" stroke="rgb(0,69,134)" stroke-linejoin="round" d="M 2043,9241 L 2043,9491 2293,9491 2293,9241 2043,9241 Z"/>
 <path fill="rgb(0,69,134)" stroke="none" d="M 7041,6892 L 7041,7141 7291,7141 7291,6892 7041,6892 Z"/>
 <path fill="none" stroke="rgb(0,69,134)" stroke-linejoin="round" d="M 7041,6892 L 7041,7141 7291,7141 7291,6892 7041,6892 Z"/>
 <path fill="rgb(0,69,134)" stroke="none" d="M 12039,2883 L 12039,3133 12289,3133 12289,2883 12039,2883 Z"/>
 <path fill="none" stroke="rgb(0,69,134)" stroke-linejoin="round" d="M 12039,2883 L 12039,3133 12289,3133 12289,2883 12039,2883 Z"/>
 <path fill="rgb(0,69,134)" stroke="none" d="M 17036,5205 L 17036,5455 17286,5455 17286,5205 17036,5205 Z"/>
 <path fill="none" stroke="rgb(0,69,134)" stroke-linejoin="round" d="M 17036,5205 L 17036,5455 17286,5455 17286,5205 17036,5205 Z"/>
 <path fill="rgb(0,69,134)" stroke="none" d="M 22034,11410 L 22034,11660 22284,11660 22284,11410 22034,11410 Z"/>
 <path fill="none" stroke="rgb(0,69,134)" stroke-linejoin="round" d="M 22034,11410 L 22034,11660 22284,11660 22284,11410 22034,11410 Z"/>
 <text class="TextShape"><tspan class="TextParagraph" font-family="Liberation Sans, sans-serif" font-size="353px" font-weight="400"><tspan class="TextPosition" x="1651" y="12475"><tspan fill="rgb(0,0,0)" stroke="none">0.0001</tspan></tspan></tspan></text>
 <text class="TextShape"><tspan class="TextParagraph" font-family="Liberation Sans, sans-serif" font-size="353px" font-weight="400"><tspan class="TextPosition" x="6741" y="12475"><tspan fill="rgb(0,0,0)" stroke="none">0.001</tspan></tspan></tspan></text>
 <text class="TextShape"><tspan class="TextParagraph" font-family="Liberation Sans, sans-serif" font-size="353px" font-weight="400"><tspan class="TextPosition" x="11832" y="12475"><tspan fill="rgb(0,0,0)" stroke="none">0.01</tspan></tspan></tspan></text>
 <text class="TextShape"><tspan class="TextParagraph" font-family="Liberation Sans, sans-serif" font-size="353px" font-weight="400"><tspan class="TextPosition" x="16924" y="12475"><tspan fill="rgb(0,0,0)" stroke="none">0.1</tspan></tspan></tspan></text>
 <text class="TextShape"><tspan class="TextParagraph" font-family="Liberation Sans, sans-serif" font-size="353px" font-weight="400"><tspan class="TextPosition" x="22067" y="12475"><tspan fill="rgb(0,0,0)" stroke="none">1</tspan></tspan></tspan></text>
 <text class="TextShape"><tspan class="TextParagraph" font-family="Liberation Sans, sans-serif" font-size="353px" font-weight="400"><tspan class="TextPosition" x="1733" y="12028"><tspan fill="rgb(0,0,0)" stroke="none">9</tspan></tspan></tspan></text>
 <text class="TextShape"><tspan class="TextParagraph" font-family="Liberation Sans, sans-serif" font-size="353px" font-weight="400"><tspan class="TextPosition" x="1548" y="10094"><tspan fill="rgb(0,0,0)" stroke="none">14</tspan></tspan></tspan></text>
 <text class="TextShape"><tspan class="TextParagraph" font-family="Liberation Sans, sans-serif" font-size="353px" font-weight="400"><tspan class="TextPosition" x="1548" y="8160"><tspan fill="rgb(0,0,0)" stroke="none">19</tspan></tspan></tspan></text>
 <text class="TextShape"><tspan class="TextParagraph" font-family="Liberation Sans, sans-serif" font-size="353px" font-weight="400"><tspan class="TextPosition" x="1548" y="6226"><tspan fill="rgb(0,0,0)" stroke="none">24</tspan></tspan></tspan></text>
 <text class="TextShape"><tspan class="TextParagraph" font-family="Liberation Sans, sans-serif" font-size="353px" font-weight="400"><tspan class="TextPosition" x="1548" y="4293"><tspan fill="rgb(0,0,0)" stroke="none">29</tspan></tspan></tspan></text>
 <text class="TextShape"><tspan class="TextParagraph" font-family="Liberation Sans, sans-serif" font-size="353px" font-weight="400"><tspan class="TextPosition" x="1548" y="2359"><tspan fill="rgb(0,0,0)" stroke="none">34</tspan></tspan></tspan></text>
 <text class="TextShape"><tspan class="TextParagraph" font-family="Liberation Sans, sans-serif" font-size="459px" font-weight="400"><tspan class="TextPosition" x="10175" y="947"><tspan fill="rgb(0,0,0)" stroke="none">Effect of Learning Rate on Part 4</tspan></tspan></tspan></text>
 <path fill="none" stroke="rgb(0,69,134)" stroke-width="80" stroke-linejoin="round" d="M 22905,6656 L 23705,6656"/>
 <path fill="rgb(0,69,134)" stroke="none" d="M 23199,6551 L 23199,6762 23410,6762 23410,6551 23199,6551 Z"/>
 <path fill="none" stroke="rgb(0,69,134)" stroke-linejoin="round" d="M 23199,6551 L 23199,6762 23410,6762 23410,6551 23199,6551 Z"/>
 <path fill="none" stroke="rgb(255,66,14)" stroke-width="80" stroke-linejoin="round" d="M 22905,7153 L 23705,7153"/>
 <path fill="rgb(255,66,14)" stroke="none" d="M 23199,7153 L 23305,7259 23410,7153 23305,7048 23199,7153 Z"/>
 <path fill="none" stroke="rgb(255,66,14)" stroke-linejoin="round" d="M 23199,7153 L 23305,7259 23410,7153 23305,7048 23199,7153 Z"/>
 <text class="TextShape"><tspan class="TextParagraph" font-family="Liberation Sans, sans-serif" font-size="353px" font-weight="400"><tspan class="TextPosition" x="23805" y="6776"><tspan fill="rgb(0,0,0)" stroke="none">training_accuracy</tspan></tspan></tspan></text>
 <text class="TextShape"><tspan class="TextParagraph" font-family="Liberation Sans, sans-serif" font-size="353px" font-weight="400"><tspan class="TextPosition" x="23805" y="7273"><tspan fill="rgb(0,0,0)" stroke="none">train_accuracy</tspan></tspan></tspan></text>
 <text class="TextShape"><tspan class="TextParagraph" font-family="Liberation Sans, sans-serif" font-size="318px" font-weight="400"><tspan class="TextPosition" x="10868" y="13218"><tspan fill="rgb(0,0,0)" stroke="none">Learning Rate</tspan></tspan></tspan></text>
 <text class="TextShape" transform="rotate(-90 837 7672)"><tspan class="TextParagraph" font-family="Liberation Sans, sans-serif" font-size="318px" font-weight="400"><tspan class="TextPosition" x="837" y="7672"><tspan fill="rgb(0,0,0)" stroke="none">Accuracy</tspan></tspan></tspan></text>
</svg>